ply
format ascii 1.0
element vertex 499
property float x
property float y
property float z
element face 844
property list uchar int vertex_indices
end_header
-44.2325 -48.557774 97.03401
-42.70393 -48.660587 97.13135
-41.87869 -48.35129 96.75752
-41.090298 -47.94159 97.21803
-40.420364 -48.892464 98.70571
-41.4952 -49.249313 99.003235
-42.077 -49.02429 98.54118
-40.292904 -49.72631 100.44445
-41.194 -49.694996 101.66032
-42.72567 -49.394455 103.606804
-42.691425 -49.158466 100.921745
-40.430298 -49.937996 102.065216
-41.06007 -49.873714 104.09105
-43.435165 -49.138218 104.38828
-42.330654 -49.49772 105.60311
-42.718987 -49.228226 106.333565
-41.43036 -49.741432 105.68584
-41.821583 -49.558826 106.404884
-39.94602 -49.88673 106.43892
-46.029022 -48.799152 98.348434
-47.10041 -48.299778 99.53051
-45.54532 -48.679653 100.14464
-46.092552 -48.434235 100.733345
-45.841286 -48.291935 101.62181
-45.108234 -48.69416 98.6525
-44.185593 -48.759018 100.072136
-41.999886 -48.829605 97.64397
-41.291645 -48.65392 97.44081
-41.23374 -49.02558 98.241264
-40.64476 -48.418884 97.96371
-44.939026 -48.66308 101.98639
-44.67687 -48.653835 103.056
-43.97107 -48.63399 105.233665
-40.842297 -49.42912 108.11215
-41.659042 -49.308174 107.81043
-40.95052 -48.80047 109.933334
-42.933773 -48.818043 107.119995
-42.342354 -48.938576 107.91827
-41.610878 -48.326942 110.12673
-41.09242 -48.334637 110.73978
-40.60966 -47.754383 112.11405
-40.400017 -46.716938 113.626
-40.288544 -49.420815 99.49483
-39.569004 -49.360542 99.99487
-39.378994 -49.678844 100.83511
-39.133583 -49.990425 101.620575
-38.624172 -49.810177 102.24263
-39.508667 -50.194008 103.424194
-38.697365 -50.15037 103.09257
-38.009457 -49.584915 102.924164
-37.574135 -49.258945 103.71268
-38.06735 -49.940006 103.82048
-38.961372 -50.19634 104.912506
-38.21955 -50.138042 104.766815
-38.09438 -49.823883 106.51688
-37.168556 -48.961605 104.48855
-37.74258 -49.89718 105.54833
-37.234467 -49.55527 106.27122
-37.071915 -49.406487 105.32892
-36.67871 -48.879337 105.98407
-39.991367 -49.568825 107.948135
-39.23115 -49.495094 108.269875
-36.908215 -49.027187 107.79425
-36.725433 -49.07124 106.87165
-40.116604 -49.08544 109.64768
-36.298153 -48.41577 108.26554
-35.993416 -47.90902 107.61822
-39.6571 -48.537518 111.12666
-38.792786 -48.526985 110.94899
-37.12731 -47.983093 110.78603
-35.80039 -47.601727 108.6951
-35.89955 -47.505848 109.852646
-36.098206 -46.70501 111.990105
-35.383038 -46.821507 109.32599
-35.339417 -46.71408 110.2919
-39.785614 -47.773525 112.52352
-38.83188 -47.647312 112.686676
-37.39713 -46.91556 113.12596
-35.94143 -45.718884 113.467766
-39.481976 -46.183395 115.0354
-38.73542 -46.57222 114.43877
-38.384865 -45.577427 115.90942
-37.111156 -45.766094 114.698746
-35.739273 -44.561165 115.075096
-36.418827 -44.723297 115.69739
-34.93798 -45.669437 111.511795
-34.649544 -44.877148 111.89354
-34.893272 -44.473488 113.73154
-34.326553 -43.87312 113.226166
-35.1701 -43.88216 115.51727
-34.49096 -43.418285 115.04055
-33.973743 -42.787666 114.51049
-34.035122 -42.51937 116.4375
-33.579166 -41.816322 115.97273
-40.338345 -44.231735 119.786545
-40.998867 -45.238487 121.394966
-40.71052 -44.72575 120.593
-40.92983 -46.019363 122.74969
-40.13861 -45.231888 121.110725
-41.732845 -45.976067 123.03984
-41.308636 -46.305565 124.544365
-42.15838 -46.36705 124.919624
-39.953148 -45.48696 124.856384
-41.700264 -46.52734 126.52487
-41.84216 -46.66978 127.48881
-41.10036 -46.208183 127.17589
-39.867752 -45.08724 127.00247
-42.95678 -46.61309 128.5348
-42.604294 -46.575005 129.32527
-42.175312 -46.802532 128.44388
-41.798885 -46.567295 129.10077
-41.439922 -45.919796 130.35483
-40.945114 -45.733078 129.63815
-42.098812 -46.327335 129.97438
-42.91785 -46.082115 130.15515
-42.20254 -45.861748 130.77618
-41.36574 -45.43729 131.12543
-40.119293 -44.748383 130.36429
-40.270702 -44.268375 131.79045
-42.18872 -45.26399 131.52524
-41.253326 -44.726833 131.85144
-39.39783 -43.755356 131.74161
-40.77305 -44.013298 132.29889
-40.052254 -43.519104 132.40105
-39.57327 -45.213467 116.55851
-39.108147 -45.68197 115.90364
-39.41622 -44.862595 117.41483
-40.139275 -44.225437 117.746
-38.586025 -44.78326 117.69368
-37.085533 -44.75531 116.37981
-37.00858 -44.376724 117.26439
-37.62753 -44.344353 118.89134
-39.780514 -44.553017 119.27136
-40.14315 -44.09501 118.79133
-38.470783 -44.617706 118.61269
-39.816223 -44.87755 120.14168
-38.9229 -44.82026 120.24688
-38.189716 -44.505623 120.4694
-37.632366 -44.08363 122.30501
-36.19198 -43.954334 117.31855
-36.677017 -43.79263 120.44173
-35.439194 -43.217716 119.162254
-35.42033 -43.462215 117.42468
-33.534958 -41.77993 116.983765
-34.227295 -42.423615 118.1234
-33.088505 -41.0441 117.525955
-32.860565 -41.219646 119.71024
-34.070927 -42.230045 119.726326
-35.48633 -43.136013 120.95703
-34.365856 -42.478832 122.009
-39.401154 -45.084366 120.86946
-39.44911 -45.215225 121.741714
-38.612885 -44.525208 123.88981
-38.44727 -43.88395 127.01174
-35.606617 -42.990818 123.80458
-37.397324 -43.45606 125.65813
-36.70651 -43.21889 125.026306
-35.927765 -42.83162 125.667404
-34.503975 -42.557926 122.84582
-33.25903 -41.742077 122.73575
-31.952843 -40.638615 123.470695
-31.635225 -40.01892 122.922844
-33.129513 -41.64326 124.93517
-34.364437 -42.192814 126.188515
-39.406403 -44.187305 130.25511
-38.31887 -43.602585 128.341
-36.933315 -43.007473 127.36328
-35.54454 -42.553852 127.06766
-35.944572 -42.50713 128.46439
-38.461807 -43.627132 129.17487
-37.138496 -42.901623 129.36707
-35.76044 -42.365063 129.34381
-35.097027 -42.206947 128.6808
-31.704271 -40.544456 127.681175
-34.086887 -41.503105 130.78656
-33.310947 -41.29821 130.13634
-32.576916 -40.993515 129.45763
-31.336546 -39.807983 128.29163
-31.8814 -40.292374 129.77536
-39.77193 -44.281002 131.05962
-38.09439 -43.339203 130.68042
-39.24631 -43.121586 132.39545
-37.454628 -42.91793 131.20206
-37.682774 -42.69083 132.0222
-35.732742 -42.263535 130.2656
-36.186695 -41.860603 132.17502
-35.245094 -41.554184 131.98672
-37.640182 -41.51888 133.05484
-35.777378 -41.222733 132.7234
-34.204903 -41.19941 131.77548
-34.025715 -40.554157 132.5629
-32.57811 -40.47284 131.30453
-32.12966 -39.67492 131.62627
-32.68116 -40.141354 132.03859
-33.2636 -40.022 132.59215
-32.602554 -39.395565 132.40202
-33.95994 -39.728962 133.06528
-34.833138 -41.682083 131.28406
-40.2202 -45.26564 127.97274
-40.598564 -45.526516 128.81772
-40.029346 -44.94298 128.76598
-44.223373 -48.511913 96.12278
-43.467815 -48.567673 96.6542
-41.15997 -49.468056 99.81922
-40.585804 -49.82874 101.23695
-41.95987 -49.315468 100.346664
-42.754467 -49.038425 99.976036
-41.827415 -49.531364 102.01989
-43.129044 -49.202984 102.58007
-41.23241 -49.75401 102.589195
-41.730724 -49.66966 103.41601
-42.640717 -49.435837 104.67281
-43.173935 -49.15644 105.4245
-41.915825 -49.650837 104.23835
-41.174976 -49.84155 104.89935
-40.88422 -49.760807 106.43893
-40.519966 -49.9202 105.63069
-46.648354 -48.729237 98.932724
-45.763496 -48.726925 99.23427
-46.330643 -48.594074 99.81817
-44.404064 -48.62714 98.007965
-43.556877 -48.722164 98.531555
-42.78564 -48.8031 98.06367
-42.797207 -48.920647 99.01467
-43.478073 -48.92054 100.56215
-44.813328 -48.732815 100.43462
-44.27896 -48.819336 101.17775
-43.38885 -49.03955 101.568054
-45.532825 -48.1865 102.56361
-43.718143 -49.071056 103.32382
-44.20285 -48.807674 104.08425
-44.8141 -48.39627 103.87774
-41.282295 -49.55646 107.19947
-40.39749 -49.68847 107.24344
-42.173397 -49.291622 107.1249
-41.6693 -49.04432 108.55948
-43.484226 -48.66617 106.275024
-42.408943 -48.391563 108.73653
-41.696495 -48.659187 109.37985
-41.22876 -47.716404 111.47
-40.510223 -48.286095 111.3367
-40.892075 -49.31701 99.01382
-39.76574 -48.724373 99.29687
-39.87422 -49.972267 101.415276
-38.657112 -49.43845 101.385284
-40.285954 -50.024582 102.91335
-39.494293 -50.095837 102.40399
-40.25791 -50.06482 103.83371
-38.813187 -50.240215 104.04126
-39.566097 -50.07094 105.5154
-39.01218 -49.900955 106.52553
-38.599243 -50.055164 105.67278
-37.505486 -49.73488 104.574265
-38.954807 -49.03842 100.5989
-38.488857 -49.614685 107.55514
-37.532913 -49.47095 107.2258
-36.993237 -48.784637 108.663185
-40.046776 -49.357414 108.74573
-36.351994 -48.589684 107.40869
-40.28097 -48.734985 110.52398
-39.3798 -48.89215 110.24262
-38.438023 -48.858562 109.908356
-37.5311 -48.49661 110.048584
-36.69144 -48.07636 109.99386
-36.41732 -47.635277 110.60265
-37.95469 -48.317455 110.8441
-35.922195 -47.097694 110.92768
-36.646122 -47.39209 111.42469
-35.404907 -46.439636 111.23779
-34.95853 -45.858334 110.62567
-39.950317 -48.166203 111.8345
-39.180027 -48.151108 111.85018
-40.531803 -47.235157 112.86093
-37.471302 -47.74679 111.613174
-38.184906 -47.235218 113.150894
-38.84872 -47.106323 113.61429
-37.88258 -46.229572 114.57292
-36.535465 -46.418053 113.06415
-37.19353 -46.343563 113.883766
-36.452633 -45.774727 114.02684
-35.74894 -46.004482 112.70751
-35.66202 -45.02778 114.16721
-37.77936 -45.69647 115.34131
-36.38438 -45.20038 114.85126
-35.43885 -46.12077 111.989105
-35.088852 -45.456158 112.39809
-34.71307 -44.70334 112.83354
-35.314323 -45.237846 113.2551
-34.360794 -44.089523 112.310875
-34.029984 -42.936398 113.52968
-35.045242 -44.194054 114.60377
-34.394867 -43.643757 114.125404
-35.809933 -44.221733 115.87303
-33.985855 -42.64806 115.4852
-34.625034 -43.231216 115.9832
-40.314537 -45.80591 123.148834
-41.10288 -46.17195 123.60518
-41.953438 -46.153088 123.968834
-42.417835 -46.351467 125.968704
-42.461998 -46.598362 126.96128
-41.543915 -46.43177 125.5357
-40.385704 -45.753662 125.69918
-42.529976 -46.770615 127.80517
-41.462555 -46.21748 129.63126
-41.451134 -46.440994 128.17226
-40.842663 -45.898605 128.05711
-40.790348 -45.34131 130.40901
-40.580025 -44.85331 131.15074
-39.893707 -45.523506 115.76225
-38.570805 -46.055756 115.20456
-40.061665 -44.688606 117.002495
-38.66637 -45.178204 116.7193
-37.803818 -45.193413 116.18026
-37.085987 -45.232147 115.524506
-37.82589 -44.78846 117.03786
-39.40765 -44.637318 118.381676
-39.119457 -44.725178 119.342674
-38.3401 -44.57228 119.533806
-36.324234 -44.28845 116.52644
-36.16058 -43.698788 118.83149
-37.137703 -43.927406 121.35254
-35.44664 -43.72549 116.50745
-34.72932 -43.062435 116.88717
-35.425575 -43.316063 118.307816
-34.79785 -42.814972 118.624275
-34.784866 -42.926445 117.762695
-34.09431 -42.414997 117.36143
-33.55178 -41.801502 118.07723
-32.903973 -41.015495 118.6381
-33.44113 -41.715313 119.12915
-34.100567 -42.266647 118.84958
-34.749077 -42.716595 119.48539
-35.388515 -43.123627 120.03381
-34.707283 -42.668137 120.45842
-33.436825 -41.766197 120.091415
-32.442787 -40.448204 119.521416
-34.216015 -42.36547 121.19783
-33.533573 -41.880886 121.007
-38.740646 -44.809624 121.21211
-38.65061 -44.729126 122.25097
-39.01923 -44.903397 123.28003
-38.232384 -44.356297 123.10795
-39.753506 -45.4291 123.74311
-35.995502 -43.446674 120.47963
-36.64654 -43.6191 122.07055
-36.571316 -43.414772 123.52967
-38.82269 -44.41925 125.58309
-38.549812 -44.355392 124.75758
-37.93379 -43.654976 126.34261
-37.138405 -43.569847 124.16742
-35.71272 -42.885296 124.79134
-34.92697 -42.808754 121.43877
-33.909126 -42.187744 122.58843
-32.578 -41.234413 123.17709
-32.48005 -41.04841 121.47375
-31.733566 -39.94462 122.054375
-33.873177 -42.15575 123.372086
-33.915394 -42.14896 124.30144
-33.186356 -41.696342 123.8215
-34.815804 -42.568134 124.54313
-31.76252 -40.482456 124.38564
-39.87887 -45.27661 125.92523
-39.168507 -44.442852 127.04619
-38.99124 -44.066895 128.56306
-39.7856 -44.595943 129.5676
-37.700726 -43.400944 127.11776
-36.6745 -43.079887 125.87985
-37.145767 -43.20081 126.503494
-36.23481 -42.832413 126.62483
-36.16248 -42.689728 127.61734
-36.863914 -42.85703 128.365
-39.138863 -44.08141 129.43103
-37.711273 -43.208557 128.82784
-37.894066 -43.27338 129.75099
-36.457973 -42.6282 129.07378
-36.483543 -42.61402 129.89323
-35.292076 -42.531303 126.313385
-34.734802 -42.25826 127.05618
-34.440773 -42.05917 127.94325
-32.470543 -41.164673 124.17037
-32.922157 -41.47306 126.83511
-32.629604 -41.32013 125.89781
-34.14414 -41.710236 129.86179
-34.26505 -41.8887 128.91885
-32.37356 -41.087975 127.72868
-32.781216 -41.25507 128.52925
-31.931072 -40.582123 128.70119
-31.419327 -39.617897 129.19107
-38.933865 -43.77319 130.93822
-38.441124 -43.267693 131.6331
-38.47536 -42.81704 132.36748
-36.540756 -42.564163 130.78993
-36.74354 -42.41022 131.663
-37.131943 -42.08871 132.46844
-36.699177 -41.40603 132.88748
-34.970592 -42.0673 129.6055
-34.920708 -41.913673 130.51602
-35.747066 -42.074726 131.25343
-32.538055 -40.748974 130.41791
-33.324295 -41.043686 131.07173
-31.935404 -39.998707 130.74358
-33.330143 -40.685356 131.92136
-34.8635 -40.94162 132.59341
-31.511505 -40.362183 126.77963
-31.527246 -40.25006 125.22426
-40.49709 -45.63967 127.34285
-41.16137 -46.104454 128.89003
-41.342644 -45.71103 122.17152
-42.051228 -49.18401 99.46171
-37.985554 -44.35844 121.39611
-36.120678 -43.571888 119.7091
-35.27856 -42.939972 122.9229
-32.095245 -40.699028 122.40204
-34.65821 -42.595657 123.669815
-37.597908 -43.233086 127.95788
-33.102196 -41.514656 127.66408
-33.80676 -41.878788 127.10026
-37.263386 -42.95056 130.30052
-32.231518 -40.99731 125.07686
-39.316223 -44.88952 125.237656
-34.001926 -42.197353 120.47726
-39.549282 -44.630253 127.94649
-33.08085 -41.57646 121.69225
-35.69734 -43.198353 121.96118
-37.9617 -44.042233 124.00938
-37.052345 -48.533382 109.41922
-41.186234 -49.599346 100.746284
-41.91694 -49.425323 101.23133
-42.231823 -49.47586 102.70913
-42.568886 -49.29165 101.84178
-44.041946 -48.93215 102.28536
-40.91917 -49.88813 103.34807
-41.916145 -49.65278 105.013145
-40.33546 -50.026447 104.75508
-44.271202 -48.689716 99.04009
-43.531967 -48.643433 97.5822
-44.936596 -48.70287 99.5687
-43.501263 -48.818123 99.53292
-45.2448 -48.65946 101.06516
-39.580425 -50.1809 104.42846
-39.460026 -49.733654 107.3248
-38.46778 -49.270573 108.738525
-37.701397 -49.25357 108.18925
-39.24281 -49.206825 109.28313
-40.890633 -49.13842 109.075615
-37.728443 -48.929844 109.18078
-36.36671 -48.179455 109.166664
-38.335487 -48.015255 111.76067
-36.961716 -47.12254 112.30247
-39.584873 -46.76568 114.13551
-37.854027 -47.487465 112.4397
-38.018135 -46.760384 113.83257
-39.669693 -47.295143 113.29166
-40.24975 -46.199818 114.40759
-40.340992 -45.651833 122.08313
-40.747696 -46.061554 125.13194
-40.44953 -45.69936 126.565994
-40.984756 -46.176224 126.13046
-40.38814 -45.151833 129.60486
-37.711514 -44.49511 117.95657
-36.922176 -43.997425 119.44954
-37.680485 -44.301666 119.754105
-37.424637 -44.137928 120.48751
-36.830944 -44.1033 118.26132
-36.027523 -43.74198 118.02949
-36.911953 -43.65936 122.7869
-39.56512 -45.321888 122.683876
-40.490746 -45.92194 124.17219
-39.224457 -44.95366 124.301994
-37.668724 -43.745964 124.846825
-36.28312 -43.5347 121.2453
-36.090523 -43.301212 122.850876
-36.335415 -43.196846 124.267624
-38.179108 -43.948795 125.54974
-39.330296 -44.733425 126.205215
-38.19617 -43.612907 127.63674
-37.446312 -43.853085 123.293686
-35.00482 -42.529404 125.44783
-34.97773 -42.83773 122.23188
-32.927635 -41.39422 120.7196
-33.69815 -42.029846 121.87525
-32.66852 -41.27885 122.31775
-32.393917 -40.777634 120.47925
-32.049725 -40.414623 121.31958
-34.07825 -42.152588 125.23268
-31.47807 -39.83092 123.80494
-31.857922 -40.71917 125.94707
-38.663708 -44.17203 126.29935
-38.83631 -44.052975 127.75751
-39.516273 -44.463272 128.8292
-38.651386 -43.708088 130.05722
-35.29964 -42.378296 127.815544
-33.63537 -41.70392 128.21426
-33.476147 -41.799282 126.011566
-32.1423 -40.980152 126.79923
-33.42709 -41.49942 129.1933
-38.069954 -42.22784 132.72388
-34.715225 -40.132816 133.11584
-36.32404 -48.193092 106.59826
3 406 112 303 
3 112 406 199 
3 199 458 112 
3 199 406 305 
3 458 199 200 
3 112 458 306 
3 305 406 304 
3 199 305 198 
3 198 200 199 
3 364 458 200 
3 105 305 304 
3 305 405 198 
3 200 198 421 
3 364 117 458 
3 200 489 364 
3 405 305 105 
3 198 405 106 
3 489 200 421 
3 106 421 198 
3 117 306 458 
3 117 364 164 
3 364 489 371 
3 105 456 405 
3 405 456 106 
3 421 363 489 
3 106 362 421 
3 371 164 364 
3 164 179 117 
3 371 489 363 
3 456 105 457 
3 456 361 106 
3 363 421 488 
3 474 362 106 
3 362 488 421 
3 307 117 179 
3 169 371 363 
3 457 301 456 
3 361 474 106 
3 361 456 301 
3 363 488 165 
3 474 487 362 
3 488 362 153 
3 363 165 169 
3 169 490 371 
3 455 301 457 
3 361 419 474 
3 102 361 301 
3 165 488 475 
3 153 362 487 
3 487 474 346 
3 153 475 488 
3 164 371 490 
3 373 490 169 
3 301 455 102 
3 102 419 361 
3 474 419 346 
3 487 348 153 
3 487 346 473 
3 365 475 153 
3 490 388 164 
3 373 169 372 
3 180 490 373 
3 467 102 455 
3 419 102 468 
3 419 347 346 
3 153 348 365 
3 473 348 487 
3 347 473 346 
3 475 365 414 
3 164 388 179 
3 372 170 373 
3 165 372 169 
3 180 388 490 
3 102 467 342 
3 342 468 102 
3 468 347 419 
3 348 367 365 
3 155 348 473 
3 473 347 469 
3 166 414 365 
3 475 414 165 
3 372 370 170 
3 170 417 373 
3 372 165 414 
3 342 467 295 
3 468 342 340 
3 347 468 152 
3 367 348 155 
3 365 367 166 
3 155 473 469 
3 424 469 347 
3 414 166 370 
3 370 372 414 
3 374 170 370 
3 373 417 180 
3 417 170 375 
3 295 466 342 
3 152 468 340 
3 466 340 342 
3 347 152 424 
3 155 366 367 
3 368 166 367 
3 156 155 469 
3 166 369 370 
3 370 168 374 
3 375 170 374 
3 391 417 375 
3 340 341 152 
3 339 340 466 
3 152 341 424 
3 156 366 155 
3 367 366 368 
3 166 368 369 
3 469 349 156 
3 168 370 369 
3 171 374 168 
3 374 171 375 
3 375 184 391 
3 182 417 391 
3 341 340 339 
3 157 366 156 
3 157 368 366 
3 167 369 368 
3 156 349 472 
3 424 349 469 
3 491 168 369 
3 171 168 172 
3 184 375 171 
3 417 182 180 
3 138 341 339 
3 157 156 350 
3 368 157 376 
3 376 167 368 
3 369 167 491 
3 345 472 349 
3 472 350 156 
3 349 424 476 
3 168 491 172 
3 172 395 171 
3 184 171 395 
3 138 339 409 
3 476 341 138 
3 477 157 350 
3 157 477 376 
3 167 376 377 
3 167 377 491 
3 476 345 349 
3 154 472 345 
3 154 350 472 
3 341 476 424 
3 172 491 378 
3 395 172 383 
3 395 396 184 
3 339 338 409 
3 359 477 350 
3 163 376 477 
3 163 377 376 
3 378 491 377 
3 345 476 465 
3 154 345 471 
3 359 350 154 
3 378 383 172 
3 383 382 395 
3 396 397 184 
3 396 395 382 
3 338 339 151 
3 409 338 137 
3 484 477 359 
3 477 484 163 
3 377 163 416 
3 416 378 377 
3 465 471 345 
3 138 465 476 
3 471 411 154 
3 154 413 359 
3 378 492 383 
3 382 383 495 
3 396 197 397 
3 174 396 382 
3 466 151 339 
3 357 484 359 
3 493 163 484 
3 493 416 163 
3 378 416 492 
3 465 344 471 
3 344 465 138 
3 413 154 411 
3 411 471 423 
3 359 413 357 
3 492 495 383 
3 495 175 382 
3 197 396 174 
3 174 382 175 
3 484 357 162 
3 416 493 380 
3 415 492 416 
3 344 423 471 
3 138 320 344 
3 411 158 413 
3 423 478 411 
3 495 492 385 
3 399 174 175 
3 357 358 162 
3 484 162 493 
3 416 380 415 
3 380 493 381 
3 492 415 385 
3 470 423 344 
3 409 320 138 
3 320 470 344 
3 411 478 158 
3 413 158 356 
3 423 351 478 
3 495 385 176 
3 175 398 399 
3 399 189 174 
3 358 379 162 
3 357 356 358 
3 381 493 162 
3 384 415 380 
3 381 494 380 
3 415 384 385 
3 148 423 470 
3 320 409 462 
3 470 320 140 
3 158 352 356 
3 356 357 413 
3 351 423 148 
3 149 478 351 
3 176 175 495 
3 176 398 175 
3 191 399 398 
3 197 174 189 
3 189 399 401 
3 418 162 379 
3 379 358 353 
3 358 356 159 
3 380 494 384 
3 470 343 148 
3 140 320 462 
3 137 462 409 
3 140 343 470 
3 352 158 149 
3 356 352 159 
3 148 333 351 
3 351 336 149 
3 478 149 158 
3 191 401 399 
3 189 186 197 
3 162 418 381 
3 353 358 159 
3 343 332 148 
3 462 460 140 
3 137 461 462 
3 140 410 343 
3 149 480 352 
3 352 480 159 
3 332 333 148 
3 336 351 333 
3 336 480 149 
3 397 197 186 
3 381 418 486 
3 159 481 353 
3 332 343 410 
3 460 410 140 
3 462 461 460 
3 461 137 317 
3 480 422 159 
3 333 332 331 
3 420 336 333 
3 336 337 480 
3 397 186 185 
3 494 381 486 
3 481 159 422 
3 332 410 141 
3 319 410 460 
3 131 460 461 
3 137 136 317 
3 317 131 461 
3 422 480 337 
3 141 331 332 
3 147 333 331 
3 333 147 420 
3 336 420 337 
3 354 481 422 
3 141 410 319 
3 460 463 319 
3 463 460 131 
3 338 136 137 
3 131 317 134 
3 337 479 422 
3 141 324 331 
3 330 147 331 
3 334 420 147 
3 334 337 420 
3 354 422 479 
3 141 319 323 
3 463 464 319 
3 131 459 463 
3 136 338 150 
3 334 479 337 
3 141 323 324 
3 331 324 330 
3 330 329 147 
3 147 329 334 
3 319 464 323 
3 464 463 139 
3 463 459 130 
3 151 150 338 
3 479 334 146 
3 325 324 323 
3 144 330 324 
3 327 329 330 
3 146 334 329 
3 142 323 464 
3 130 139 463 
3 130 459 314 
3 142 325 323 
3 324 325 144 
3 330 144 327 
3 464 139 142 
3 322 325 142 
3 325 326 144 
3 327 144 326 
3 321 322 142 
3 326 325 322 
3 322 321 294 
3 92 326 322 
3 202 0 201 
3 202 1 435 
3 2 3 27 
3 5 203 408 
3 408 6 5 
3 408 206 223 
3 429 10 427 
3 431 245 247 
3 428 210 9 
3 13 211 212 
3 14 211 432 
3 16 215 17 
3 20 217 219 
3 434 24 220 
3 1 2 26 
3 1 26 222 
3 26 2 27 
3 28 27 29 
3 28 5 6 
3 28 4 241 
3 21 218 436 
3 21 225 438 
3 438 22 21 
3 31 229 230 
3 430 30 226 
3 229 9 13 
3 212 32 13 
3 17 215 232 
3 17 234 15 
3 34 33 235 
3 235 444 238 
3 36 234 37 
3 235 37 34 
3 238 35 38 
3 35 39 38 
3 241 5 28 
3 43 42 242 
3 7 42 43 
3 203 42 7 
3 7 43 44 
3 243 44 45 
3 44 43 253 
3 243 45 246 
3 45 44 244 
3 247 12 431 
3 246 48 47 
3 246 46 48 
3 47 48 248 
3 48 49 51 
3 214 433 216 
3 439 52 249 
3 18 216 249 
3 18 249 250 
3 248 51 53 
3 56 53 252 
3 252 55 58 
3 251 56 54 
3 54 56 57 
3 58 56 252 
3 58 57 56 
3 18 250 440 
3 33 233 60 
3 255 63 62 
3 57 58 59 
3 441 61 254 
3 444 35 238 
3 444 64 35 
3 64 257 443 
3 59 63 57 
3 65 62 258 
3 258 66 65 
3 259 67 240 
3 67 259 260 
3 260 68 67 
3 68 260 261 
3 69 263 264 
3 68 261 265 
3 69 264 267 
3 74 71 73 
3 72 266 268 
3 40 240 270 
3 270 75 40 
3 68 271 67 
3 450 76 447 
3 76 275 452 
3 449 80 79 
3 80 275 451 
3 276 80 451 
3 77 277 278 
3 279 82 278 
3 279 281 283 
3 80 276 309 
3 72 268 284 
3 269 85 268 
3 280 285 287 
3 285 286 287 
3 287 78 280 
3 88 87 286 
3 290 90 89 
3 91 90 291 
3 84 83 292 
3 294 89 90 
3 90 91 293 
3 407 97 99 
3 95 98 454 
3 97 295 296 
3 97 296 99 
3 297 100 101 
3 298 103 299 
3 104 302 299 
3 299 103 104 
3 103 298 300 
3 455 300 100 
3 105 103 457 
3 104 103 105 
3 109 302 104 
3 109 104 304 
3 108 107 109 
3 108 109 110 
3 303 111 113 
3 110 304 406 
3 303 112 111 
3 113 108 110 
3 113 115 114 
3 114 108 113 
3 111 115 113 
3 116 115 111 
3 112 306 111 
3 306 116 111 
3 307 118 120 
3 116 119 115 
3 120 116 307 
3 118 122 120 
3 125 308 79 
3 128 126 311 
3 81 282 312 
3 128 311 314 
3 128 314 459 
3 127 126 315 
3 315 132 133 
3 315 134 316 
3 459 134 128 
3 94 133 132 
3 316 136 135 
3 316 134 317 
3 318 130 129 
3 139 318 321 
3 326 143 327 
3 146 335 482 
3 135 150 98 
3 98 96 135 
3 98 150 151 
3 412 161 160 
3 160 485 360 
3 386 178 176 
3 179 118 307 
3 118 179 121 
3 388 121 179 
3 121 388 389 
3 389 181 121 
3 182 391 392 
3 392 183 182 
3 123 122 118 
3 187 393 394 
3 191 398 400 
3 401 190 189 
3 401 194 190 
3 193 194 401 
3 194 193 195 
3 191 192 193 
3 194 196 190 
3 483 355 412 
3 241 203 5 
3 426 204 8 
3 11 204 243 
3 427 207 429 
3 10 206 205 
3 8 207 427 
3 9 208 428 
3 430 229 31 
3 11 209 8 
3 204 11 8 
3 431 209 245 
3 12 210 431 
3 214 16 432 
3 9 211 13 
3 432 213 214 
3 212 14 15 
3 14 432 16 
3 9 213 211 
3 210 213 9 
3 12 214 213 
3 18 215 216 
3 232 233 33 
3 17 14 16 
3 16 216 215 
3 216 16 214 
3 219 218 21 
3 19 218 217 
3 24 218 19 
3 22 219 21 
3 435 220 0 
3 435 0 202 
3 25 436 434 
3 436 225 21 
3 224 206 10 
3 6 222 26 
3 26 28 6 
3 28 26 27 
3 436 218 24 
3 222 435 1 
3 226 227 430 
3 25 225 436 
3 438 226 30 
3 25 226 225 
3 224 226 25 
3 23 438 30 
3 10 227 224 
3 227 10 429 
3 31 228 30 
3 31 30 430 
3 13 230 229 
3 32 230 13 
3 9 229 208 
3 230 231 31 
3 15 14 17 
3 34 232 33 
3 18 233 215 
3 440 233 18 
3 34 234 232 
3 37 234 34 
3 15 234 36 
3 39 240 239 
3 42 241 4 
3 203 241 42 
3 7 243 204 
3 44 243 7 
3 246 11 243 
3 47 245 246 
3 47 247 245 
3 47 248 439 
3 46 246 45 
3 52 248 53 
3 439 248 52 
3 249 433 439 
3 12 433 214 
3 247 433 12 
3 250 251 54 
3 440 254 61 
3 52 251 249 
3 53 251 52 
3 56 251 53 
3 51 248 48 
3 51 252 53 
3 252 51 50 
3 233 440 60 
3 54 254 250 
3 61 60 440 
3 255 254 54 
3 57 255 54 
3 63 255 57 
3 442 256 445 
3 262 263 69 
3 441 442 445 
3 441 445 261 
3 443 261 260 
3 257 33 60 
3 444 257 64 
3 61 257 60 
3 443 257 61 
3 261 443 441 
3 63 258 62 
3 498 258 63 
3 35 259 39 
3 64 259 35 
3 64 260 259 
3 260 64 443 
3 262 261 445 
3 65 256 62 
3 265 262 69 
3 65 70 446 
3 71 263 446 
3 71 264 263 
3 267 266 72 
3 447 273 450 
3 71 266 264 
3 74 266 71 
3 448 277 77 
3 74 268 266 
3 268 74 269 
3 240 39 259 
3 67 270 240 
3 271 270 67 
3 265 447 68 
3 76 271 447 
3 75 271 76 
3 69 273 265 
3 267 273 69 
3 77 274 450 
3 451 278 276 
3 278 277 279 
3 452 272 75 
3 452 75 76 
3 79 453 449 
3 274 275 76 
3 449 275 80 
3 77 278 451 
3 309 282 81 
3 78 277 280 
3 78 279 277 
3 72 280 277 
3 284 280 72 
3 283 83 84 
3 78 281 279 
3 287 281 78 
3 125 309 81 
3 82 282 276 
3 312 313 129 
3 313 84 129 
3 283 82 279 
3 85 284 268 
3 285 284 85 
3 86 286 285 
3 286 288 88 
3 87 287 286 
3 281 287 87 
3 83 290 89 
3 87 290 281 
3 291 290 87 
3 88 291 87 
3 289 291 88 
3 290 291 90 
3 89 292 83 
3 321 142 139 
3 90 293 294 
3 92 294 293 
3 407 454 97 
3 98 151 454 
3 100 296 467 
3 296 297 99 
3 100 297 296 
3 300 101 100 
3 455 100 467 
3 109 107 302 
3 110 303 113 
3 303 110 406 
3 105 304 104 
3 116 306 307 
3 117 307 306 
3 118 121 123 
3 309 79 80 
3 126 310 124 
3 124 311 126 
3 125 311 124 
3 81 311 125 
3 312 311 81 
3 314 312 129 
3 82 313 282 
3 283 313 82 
3 130 314 129 
3 134 459 131 
3 128 315 126 
3 134 315 128 
3 132 316 135 
3 316 132 315 
3 317 136 316 
3 84 318 129 
3 292 318 84 
3 130 318 139 
3 89 321 292 
3 294 321 89 
3 92 322 294 
3 93 92 293 
3 143 326 92 
3 145 327 143 
3 329 328 146 
3 150 135 136 
3 353 412 160 
3 482 479 146 
3 403 173 494 
3 160 379 353 
3 494 486 403 
3 360 379 160 
3 173 384 494 
3 385 386 176 
3 173 386 384 
3 177 386 173 
3 123 121 181 
3 389 180 182 
3 181 389 390 
3 389 182 183 
3 183 390 389 
3 496 183 393 
3 391 184 397 
3 392 391 397 
3 188 185 186 
3 392 393 183 
3 394 393 185 
3 397 185 392 
3 186 402 188 
3 178 398 176 
3 178 400 398 
3 401 191 193 
3 190 402 189 
3 404 486 418 
3 454 407 95 
3 481 354 412 
3 479 482 354 
3 445 425 262 
3 222 221 435 
3 6 223 222 
3 205 408 203 
3 206 408 205 
3 210 428 209 
3 220 221 434 
3 437 434 221 
3 254 255 442 
3 33 444 235 
3 256 446 425 
3 273 267 448 
3 295 467 296 
3 418 360 404 
3 412 354 483 
3 262 425 263 
3 263 425 446 
3 437 223 206 
3 437 25 434 
3 203 426 205 
3 7 426 203 
3 426 7 204 
3 427 426 8 
3 205 427 10 
3 427 205 426 
3 223 6 408 
3 207 428 429 
3 209 428 207 
3 208 429 428 
3 429 208 227 
3 208 430 227 
3 229 430 208 
3 207 8 209 
3 209 431 210 
3 245 209 11 
3 213 210 12 
3 213 432 211 
3 14 212 211 
3 233 232 215 
3 433 249 216 
3 218 219 217 
3 220 435 221 
3 24 434 436 
3 223 437 221 
3 221 222 223 
3 25 437 224 
3 227 226 224 
3 226 438 225 
3 206 224 437 
3 15 236 212 
3 234 17 232 
3 237 235 238 
3 11 246 245 
3 247 439 433 
3 439 247 47 
3 251 250 249 
3 254 440 250 
3 442 441 254 
3 62 442 255 
3 442 62 256 
3 425 445 256 
3 61 441 443 
3 257 444 33 
3 262 265 261 
3 256 65 446 
3 446 70 71 
3 266 267 264 
3 273 447 265 
3 72 448 267 
3 271 75 270 
3 271 68 447 
3 452 449 41 
3 273 448 450 
3 450 448 77 
3 76 450 274 
3 274 451 275 
3 451 274 77 
3 448 72 277 
3 275 449 452 
3 278 82 276 
3 282 309 276 
3 284 285 280 
3 83 283 281 
3 313 312 282 
3 84 313 283 
3 290 83 281 
3 321 318 292 
3 466 454 151 
3 97 454 295 
3 454 466 295 
3 101 300 298 
3 300 457 103 
3 457 300 455 
3 304 110 109 
3 79 309 125 
3 312 314 311 
3 328 329 327 
3 483 354 482 
3 353 481 412 
3 379 360 418 
3 386 385 384 
3 387 178 386 
3 180 389 388 
3 183 496 390 
3 392 185 393 
3 185 188 394 
3 402 186 189 
3 190 497 402 
