ply
format ascii 1.0
element vertex 750
property float x
property float y
property float z
element face 1370
property list uchar int vertex_indices
end_header
-39.035313 -22.572626 133.93864
-36.946335 -33.181396 133.75287
-35.119553 -23.209715 133.7473
-35.517258 -22.270222 133.82632
-37.93048 -31.936344 133.766
-38.20901 -24.706606 133.93376
-40.289165 -33.698425 133.57693
-42.91785 -46.082115 130.15515
-43.653587 -44.69597 130.86073
-44.11783 -43.680546 130.70395
-44.336315 -42.562035 130.88782
-42.9863 -44.74858 131.52339
-43.945293 -41.86213 131.60635
-42.20254 -45.861748 130.77618
-41.36574 -45.43729 131.12543
-42.18872 -45.26399 131.52524
-42.19895 -44.494797 132.04266
-41.534576 -43.926975 132.40697
-41.253326 -44.726833 131.85144
-40.77305 -44.013298 132.29889
-44.75155 -40.488377 131.01654
-45.085175 -37.023945 131.41444
-41.7414 -43.04322 132.6767
-42.647957 -41.694374 132.55891
-40.85441 -43.239445 132.7115
-40.052254 -43.519104 132.40105
-40.10461 -42.550064 132.89886
-41.580658 -40.792618 133.01636
-40.725475 -41.469032 133.10405
-42.39758 -34.695286 133.20155
-39.24631 -43.121586 132.39545
-37.640182 -41.51888 133.05484
-39.645638 -41.654198 133.16634
-38.175278 -40.782303 133.34987
-35.777378 -41.222733 132.7234
-37.796917 -39.884094 133.47838
-39.636837 -34.069202 133.61786
-36.09837 -39.905853 133.45178
-34.025715 -40.554157 132.5629
-33.2636 -40.022 132.59215
-32.602554 -39.395565 132.40202
-35.50323 -40.46481 133.14966
-34.663593 -39.192936 133.39719
-33.95994 -39.728962 133.06528
-33.286987 -39.161907 132.94621
-45.388203 -36.268986 131.11903
-45.83924 -32.277622 131.15884
-45.644928 -31.432251 131.60562
-43.795807 -36.701416 132.54222
-45.071804 -32.158142 132.19193
-44.96588 -27.583635 132.5665
-41.947384 -30.200005 133.52335
-44.04426 -28.99021 133.02419
-41.11573 -23.500715 133.79488
-46.14874 -27.964373 131.04846
-46.054806 -26.961771 131.30566
-45.145245 -25.427946 132.48734
-43.367786 -28.300259 133.29243
-43.793934 -23.885891 133.25491
-42.43082 -22.491453 133.62825
-45.63717 -21.31147 131.98087
-44.796124 -17.88102 132.63248
-43.2556 -19.456152 133.43451
-44.23257 -17.33295 132.98846
-40.83557 -15.345989 133.90576
-36.796124 -36.0258 133.6789
-38.72092 -26.530128 133.87975
-36.437386 -27.110645 133.86969
-32.36614 -37.86743 132.30232
-35.38823 -38.635124 133.55988
-33.563976 -38.261948 133.1749
-33.724033 -34.83378 133.15126
-34.58403 -34.466797 133.49153
-33.11985 -35.57109 132.79077
-33.082306 -37.602783 132.92786
-34.78462 -25.833355 133.63245
-34.150795 -25.486938 133.37872
-44.736572 -12.269401 132.26962
-45.157055 -12.293968 131.61156
-43.615845 -12.844599 133.16322
-44.193527 -12.443886 132.78592
-40.910957 -8.487655 133.9044
-44.518486 -8.722608 131.73477
-43.899265 -6.6486006 132.14484
-43.21076 -8.190143 133.08539
-42.883797 -5.2212753 132.85999
-42.545815 -6.1376843 133.255
-40.346375 -6.379913 133.95712
-43.343304 -4.629772 132.22687
-41.403145 -5.22178 133.64209
-40.71105 -4.809567 133.75136
-40.07746 -5.3891253 133.95059
-35.939915 -17.025913 133.9956
-36.09661 -14.981962 134.15942
-34.11144 -18.147314 133.39749
-33.43964 -17.847532 132.92879
-35.16337 -17.19224 133.84872
-34.158226 -15.283965 133.61064
-34.642376 -14.346978 133.89577
-37.394512 -13.686338 134.2699
-36.039444 -12.759212 134.28035
-38.781612 -9.1029415 134.16672
-35.988758 -8.182939 134.29904
-34.39599 -11.788926 134.04889
-34.890434 -6.553418 134.30005
-32.85603 -7.7570033 133.86864
-32.085365 -8.342511 133.34172
-33.54768 -7.144912 134.13658
-30.76459 -4.250842 133.15393
-38.561348 -5.729182 134.1542
-38.10393 -3.680468 133.88864
-36.0081 -3.715701 134.17764
-31.465714 -4.3617005 133.68686
-32.60928 -3.6297581 134.15753
-31.831858 -3.4880166 133.94243
-34.595802 -2.2055013 133.92989
-34.314144 -3.0844336 134.21014
-32.119545 -1.4648485 133.60587
-31.155256 -1.4533466 133.31223
-32.691727 -2.2435844 133.9821
-31.64705 -2.4246602 133.79143
-30.731426 -2.4254482 133.34172
-41.061825 -30.515877 133.60893
-38.681137 -10.9330845 134.17905
-36.383526 -20.997297 133.9563
-45.73016 -15.574613 131.20258
-35.71522 -26.993671 133.79791
-34.545437 -29.592104 133.5317
-36.07558 -36.413292 133.65703
-44.48131 -22.572666 132.94398
-40.09056 -26.117027 133.81221
-43.286564 -23.586433 133.41751
-43.547993 -26.268616 133.28983
-40.968513 -28.077557 133.68959
-36.620396 -4.300274 134.20862
-34.04293 -21.789679 133.31017
-41.522335 -33.318752 133.45078
-40.34117 -30.22381 133.68033
-38.95527 -20.533112 133.97476
-40.929054 -17.859257 133.87701
-41.08974 -28.872118 133.65646
-45.178143 -37.873863 131.05302
-46.012554 -29.56107 131.12643
-40.66177 -24.891005 133.8027
-33.38352 -13.097687 133.46161
-34.123375 -10.870287 134.04471
-37.746277 -21.753927 133.98161
-37.349213 -22.742855 133.96349
-38.60294 -21.59282 133.9713
-38.41062 -19.590975 134.00995
-39.5506 -26.767836 133.82861
-39.923874 -29.470388 133.73126
-40.258762 -31.07278 133.6614
-40.733875 -29.567703 133.66702
-41.638058 -34.323967 133.38075
-41.652855 -36.239094 133.27383
-33.96637 -20.819502 133.26453
-37.307713 -20.223007 134.00145
-36.904396 -21.860546 133.9676
-40.93141 -11.33456 133.90993
-42.998875 -12.160769 133.40997
-34.013165 -23.632061 133.30843
-33.883427 -24.565487 133.18968
-40.28097 -26.866343 133.77925
-42.234573 -25.895872 133.59723
-42.166416 -31.787836 133.42169
-43.38979 -31.61705 133.11513
-42.78281 -32.17057 133.26315
-40.72515 -32.8519 133.56331
-44.380943 -34.893932 132.40222
-39.22891 -36.19091 133.56519
-43.88393 -34.235085 132.7178
-35.854874 -34.12342 133.69627
-36.92779 -23.669546 133.94006
-43.66485 -45.429485 130.04895
-43.509888 -43.912766 131.42543
-43.04637 -45.47958 130.92374
-43.11451 -43.226532 131.97755
-42.56978 -42.681747 132.43864
-44.530464 -41.501194 131.01884
-44.10823 -40.78142 131.68661
-41.9911 -42.25026 132.75012
-41.14789 -42.33954 132.91507
-41.005917 -39.334663 133.22287
-42.656734 -37.601704 132.9406
-38.47536 -42.81704 132.36748
-38.614773 -41.610363 133.1543
-37.131943 -42.08871 132.46844
-36.699177 -41.40603 132.88748
-39.10183 -40.864017 133.32643
-39.47443 -40.149258 133.36678
-39.26351 -38.37326 133.47174
-38.413265 -36.872665 133.58856
-40.21645 -35.740257 133.5028
-36.87312 -39.858902 133.48286
-37.253387 -40.71412 133.31831
-34.8635 -40.94162 132.59341
-33.980556 -38.899498 133.29199
-36.473232 -17.829214 134.0167
-39.53337 -21.474333 133.9327
-41.4814 -12.987856 133.80762
-40.71705 -14.470311 133.92728
-43.702682 -15.175749 133.17847
-40.85578 -19.985334 133.86035
-40.922348 -27.21287 133.71893
-41.48311 -32.294785 133.5011
-45.532665 -34.3704 131.28227
-45.215008 -38.669025 130.71735
-43.997456 -37.839317 132.29318
-45.259434 -33.776955 131.80989
-43.42151 -38.807487 132.51231
-43.147182 -35.03695 132.95056
-44.660717 -34.003345 132.30952
-45.086502 -30.196499 132.34662
-42.176735 -32.758495 133.36476
-43.93019 -32.233215 132.86328
-44.577904 -30.667448 132.66306
-45.720325 -29.048279 131.7723
-45.564186 -27.147667 132.04395
-46.097435 -25.091343 131.29579
-45.113693 -26.488045 132.49046
-45.74547 -25.976032 131.8403
-44.534103 -27.024231 132.85773
-43.867516 -27.15634 133.15897
-42.854164 -26.371061 133.47592
-43.148247 -22.778994 133.46153
-44.533276 -24.90663 132.89607
-41.804348 -23.03441 133.7175
-44.72793 -20.926971 132.78783
-45.285065 -19.555683 132.28604
-43.8816 -23.08921 133.22888
-44.479446 -23.739998 132.93994
-43.419834 -20.224852 133.38841
-44.030132 -19.458454 133.13542
-41.476887 -18.448814 133.8016
-36.945717 -38.146236 133.60968
-38.179832 -34.824173 133.66925
-36.09079 -37.974087 133.62288
-38.88716 -30.575474 133.76413
-37.250683 -31.216688 133.80078
-36.37931 -31.171385 133.78687
-37.20845 -26.861639 133.89693
-35.441505 -39.555447 133.44589
-34.249504 -36.424103 133.40155
-35.205326 -36.14483 133.59607
-35.69644 -37.087666 133.62799
-35.322296 -34.965527 133.62628
-32.7633 -38.51339 132.6948
-32.706726 -37.08251 132.59921
-32.649715 -36.318645 132.43935
-33.33538 -36.58927 133.02167
-35.56449 -30.925575 133.7255
-40.078316 -25.374113 133.83224
-34.80326 -30.630693 133.59235
-33.922417 -29.471226 133.24614
-33.487713 -28.901667 132.86249
-33.596992 -26.930285 132.9355
-35.545036 -26.094841 133.78598
-45.309093 -17.390627 132.11475
-45.76621 -19.122871 131.68915
-41.758175 -19.339058 133.75041
-43.47306 -18.689804 133.36198
-41.44876 -14.978859 133.80695
-45.67974 -14.965967 131.05916
-45.41688 -13.261548 131.24515
-43.35703 -16.124989 133.35844
-44.32682 -14.590612 132.80145
-42.95146 -14.351888 133.45369
-44.98982 -15.030104 132.25243
-43.080463 -11.057616 133.3435
-42.273773 -12.584184 133.64014
-40.12476 -11.721699 134.01747
-44.89721 -10.490673 131.59055
-44.449364 -10.472205 132.31604
-44.20776 -7.674985 131.9669
-43.758247 -10.455049 132.9203
-43.920185 -8.444295 132.5165
-42.70978 -8.964008 133.40576
-41.853954 -8.728099 133.70256
-43.61156 -7.404822 132.65576
-42.40534 -7.9530883 133.4831
-42.891777 -7.1622205 133.17438
-41.748585 -6.023675 133.6058
-43.601646 -5.6035676 132.22562
-42.09535 -5.2005234 133.34474
-41.41917 -4.394429 133.43378
-40.91509 -5.768304 133.8308
-40.629704 -3.8926058 133.51259
-39.8517 -20.300451 133.93274
-36.141956 -21.795527 133.92157
-37.291336 -17.678112 134.04861
-39.71483 -16.199308 134.00865
-36.73275 -16.758827 134.07657
-36.985355 -15.606613 134.1627
-34.66842 -22.343645 133.61255
-33.98199 -16.386875 133.43161
-33.362053 -16.835646 132.95988
-35.411053 -16.318745 133.96051
-34.703545 -16.23522 133.76147
-35.40659 -14.39782 134.09602
-36.806732 -14.4552765 134.23499
-36.64352 -13.498288 134.28284
-36.01074 -13.8937 134.2239
-40.130287 -8.728699 134.01672
-39.259197 -12.031097 134.11832
-37.47326 -11.839882 134.28174
-35.66404 -10.704367 134.29494
-37.387054 -9.431375 134.2628
-35.17272 -13.387374 134.11446
-33.023216 -13.783729 133.11115
-34.579487 -12.685405 134.03398
-35.188976 -12.23826 134.19943
-35.212467 -9.959649 134.26576
-34.63346 -9.070909 134.23364
-35.42802 -7.3678536 134.30063
-33.364983 -10.584854 133.8117
-33.80495 -9.216519 134.07243
-31.932018 -6.164437 133.66666
-39.156483 -7.609085 134.11977
-39.210056 -5.0275826 134.03198
-39.452995 -6.024693 134.06633
-38.275925 -7.494197 134.19969
-39.021465 -4.033273 133.86246
-38.32857 -4.7091846 134.08994
-37.399685 -7.3926606 134.25137
-37.0827 -3.4105372 133.96124
-35.286846 -5.6883307 134.3084
-33.77736 -4.9941087 134.25836
-32.584393 -5.858538 133.99312
-32.880955 -5.1063666 134.13121
-35.461708 -2.1713815 133.78232
-33.668198 -2.2420125 134.01749
-33.314934 -3.1718435 134.19675
-32.392525 -2.9366817 134.08778
-30.365288 -3.2493362 132.94386
-31.0721 -3.3524876 133.56526
-35.65576 -18.038986 133.91888
-38.101837 -17.634985 134.05203
-41.670475 -10.713372 133.7755
-42.382412 -17.334318 133.63983
-34.05472 -34.001842 133.33069
-40.682995 -25.629255 133.78404
-33.85102 -17.290934 133.29028
-34.451183 -17.237762 133.61101
-33.65011 -18.825409 133.05624
-36.376152 -26.337673 133.874
-36.152824 -25.408134 133.86871
-37.88471 -25.973452 133.91429
-41.703365 -22.104603 133.74316
-40.86622 -31.686981 133.59026
-39.81693 -24.645815 133.863
-45.725746 -17.053705 131.44614
-35.275253 -37.811726 133.59187
-43.98684 -24.481266 133.17635
-46.1935 -26.001581 130.93845
-45.2364 -29.32846 132.26955
-45.002964 -36.042267 131.72215
-41.43222 -13.992152 133.81212
-42.61136 -16.340061 133.58054
-43.07147 -34.042393 133.04851
-41.774727 -28.53298 133.59537
-40.252083 -34.643127 133.54453
-36.74006 -27.671896 133.87479
-41.317886 -24.453938 133.75151
-37.297497 -32.29099 133.77573
-40.885826 -26.30515 133.74846
-42.682335 -39.508526 132.76123
-40.04203 -40.761665 133.26572
-40.0583 -37.85155 133.42485
-38.834103 -35.3269 133.62166
-45.690296 -33.32652 131.23927
-45.47109 -32.644814 131.73315
-44.436943 -35.84998 132.24323
-44.39373 -32.99771 132.57219
-42.286705 -33.729317 133.28438
-41.59573 -31.231827 133.53102
-43.385937 -30.58935 133.18253
-46.032196 -28.700848 131.28497
-45.85458 -27.962597 131.6643
-44.24217 -27.972874 132.97585
-42.247757 -24.76967 133.61487
-45.048183 -21.817223 132.55037
-44.713196 -19.977827 132.76703
-46.07309 -19.776112 131.13359
-42.578205 -19.887886 133.60344
-41.108833 -16.883682 133.85887
-36.701786 -37.1042 133.6486
-38.920593 -34.408646 133.64735
-39.27582 -32.373993 133.69058
-37.866787 -28.79409 133.85626
-36.243923 -29.450897 133.81206
-34.787724 -37.1473 133.52937
-40.441265 -23.997665 133.83673
-34.516384 -32.448055 133.50029
-35.196064 -27.779259 133.70569
-34.30084 -27.601778 133.41438
-45.72707 -20.19755 131.83214
-44.807957 -13.996998 132.35818
-45.467182 -15.3526745 131.68321
-44.078373 -16.272833 133.03293
-44.205967 -13.518228 132.84138
-40.831993 -10.349342 133.92656
-42.222412 -13.633708 133.65567
-44.63038 -9.694581 131.89674
-44.155796 -9.480474 132.45335
-42.087402 -6.9605107 133.54942
-40.3178 -22.01613 133.87962
-36.755974 -19.560162 133.99553
-40.14744 -15.236109 133.98878
-34.413475 -20.23505 133.53078
-38.38234 -16.686958 134.0827
-39.112392 -10.075284 134.13448
-33.797684 -14.14717 133.56207
-36.04243 -9.946777 134.30957
-34.975487 -8.211803 134.27098
-33.146023 -9.636864 133.81784
-33.842857 -12.44578 133.79204
-32.06832 -7.221718 133.5699
-39.747726 -6.990478 134.04727
-39.892685 -4.403786 133.82642
-36.187912 -5.9399176 134.29712
-32.725864 -6.7245502 133.94414
-34.36061 -5.7484126 134.28764
-31.224197 -5.380217 133.30084
-32.86121 -11.065031 133.47087
-32.756023 -10.187772 133.55515
-34.23627 -13.388074 133.8445
-36.352215 -10.899577 134.31668
-39.055866 -14.008711 134.12822
-40.508316 -9.437136 133.97006
-38.731068 -12.938697 134.17311
-37.8765 -12.813187 134.25537
-34.469246 -23.15464 133.54683
-38.840965 -15.847742 134.08643
-36.67605 -20.34891 133.98323
-37.0266 -18.661072 134.01848
-37.21752 -21.012207 133.98763
-36.45431 -22.684008 133.93361
-37.7939 -23.702957 133.95207
-40.885498 -18.907698 133.871
-40.402412 -21.007729 133.88739
-39.25054 -19.474182 133.97902
-38.202297 -22.673172 133.96533
-39.033012 -24.593954 133.90448
-40.02885 -7.927613 134.02185
-40.65536 -7.385094 133.92995
-42.17245 -9.743562 133.6381
-40.066273 -12.558694 134.02312
-42.342014 -11.512325 133.61572
-44.542576 -15.6705675 132.6937
-42.956303 -13.264939 133.4409
-44.628304 -13.095239 132.47314
-42.89711 -18.043707 133.52386
-42.84532 -15.351631 133.49976
-35.595657 -21.064753 133.8603
-35.885136 -24.535934 133.85545
-36.008556 -27.831635 133.8198
-33.567062 -25.718706 132.9312
-33.497356 -29.901943 132.90227
-34.08044 -30.366173 133.33191
-34.8476 -28.673122 133.61975
-38.64139 -23.63527 133.93701
-33.456856 -33.87928 132.98355
-34.49669 -38.171722 133.45657
-38.02713 -20.627739 133.99773
-35.289555 -33.816917 133.64604
-35.023952 -31.692373 133.63058
-35.82481 -31.993984 133.73355
-36.100605 -34.77517 133.69637
-37.31098 -28.058208 133.87581
-36.80166 -30.243973 133.82056
-37.438187 -34.19295 133.71568
-36.617798 -32.162094 133.77396
-38.689095 -31.633198 133.74268
-38.364487 -29.708105 133.81364
-39.13964 -29.530884 133.77902
-40.096336 -19.253078 133.9325
-39.638855 -17.385809 133.9917
-41.13154 -20.806343 133.82623
-41.32811 -15.944672 133.82614
-42.777924 -20.82059 133.56062
-45.08229 -23.069878 132.54424
-46.036602 -24.052526 131.47047
-41.60875 -26.559464 133.66917
-41.843647 -23.904888 133.6973
-41.707375 -27.56676 133.63118
-42.718502 -30.184017 133.38577
-42.33859 -26.961496 133.5581
-42.980988 -25.47688 133.46175
-45.66409 -24.770649 131.9877
-42.79982 -31.19857 133.31587
-43.629414 -33.24723 132.90523
-43.11246 -36.11 132.88292
-39.231464 -37.325134 133.51921
-38.46669 -37.89839 133.54865
-40.668182 -37.366314 133.38423
-42.66187 -38.47623 132.86482
-42.315945 -36.80508 133.09312
-41.96718 -37.900246 133.11034
-44.39703 -39.77185 131.6139
-34.745438 -4.841838 134.30212
-36.195724 -2.840743 133.93571
-34.113415 -6.568309 134.24925
-35.671734 -6.557074 134.30849
-37.678253 -5.478807 134.21172
-33.592392 -11.505141 133.79439
-34.460625 -7.3904557 134.25803
-33.061756 -12.083214 133.41951
-38.240116 -9.7967205 134.21333
-39.529713 -11.008354 134.08891
-39.596523 -13.190956 134.07639
-34.76715 -21.256239 133.64818
-35.9767 -23.539402 133.87396
-39.362877 -15.060286 134.07053
-37.857895 -18.61273 134.03038
-40.347534 -23.053732 133.86057
-41.534924 -7.7196307 133.75653
-40.820747 -12.349179 133.9233
-45.34386 -14.265679 131.66194
-43.088234 -17.084839 133.46544
-42.142815 -18.326979 133.68869
-42.65163 -18.971529 133.58615
-34.09191 -28.638136 133.32715
-33.982014 -33.169006 133.29222
-34.19642 -31.4413 133.37564
-36.059124 -30.308622 133.78528
-37.582718 -30.012142 133.82985
-39.072517 -33.398865 133.6709
-39.46853 -31.365873 133.70753
-36.321125 -38.99907 133.56497
-37.627464 -37.448936 133.60736
-45.226517 -20.647469 132.38153
-42.57045 -23.618883 133.58441
-46.00585 -22.979357 131.53369
-45.989017 -30.485043 130.98804
-43.33938 -32.49889 133.07349
-41.560356 -29.494379 133.58997
-40.91006 -33.951515 133.5022
-44.54671 -31.751307 132.59502
-43.319363 -37.758602 132.67062
-39.997437 -36.811783 133.47849
-41.42861 -37.210724 133.26349
-41.807137 -39.92994 133.0189
-41.859474 -38.917736 133.0701
-43.780113 -42.934734 131.47188
-42.880848 -44.041706 131.91304
-43.285965 -42.244267 132.07841
-44.143337 -38.90365 132.02475
-44.999645 -39.51751 130.85915
-44.79489 -38.804058 131.40514
-44.50946 -36.908432 132.04218
-42.361465 -43.59805 132.33247
-41.789352 -41.5033 132.8927
-40.894184 -40.364666 133.18275
-39.34521 -39.315773 133.4227
-41.03075 -38.2406 133.27632
-43.070557 -36.966053 132.83693
-38.069954 -42.22784 132.72388
-39.057808 -42.375793 132.87035
-36.363262 -40.652233 133.22482
-40.183914 -39.784084 133.31694
-38.391853 -38.982456 133.50888
-40.1687 -38.811108 133.36676
-37.768757 -38.321243 133.57098
-37.547707 -36.48079 133.64282
-34.715225 -40.132816 133.11584
-35.265503 -2.9936135 134.11295
-35.79936 -4.801076 134.28885
-32.397987 -9.36581 133.4201
-37.94745 -6.5098004 134.2159
-36.482445 -9.149783 134.2967
-38.21369 -13.836519 134.2119
-39.912983 -14.202807 134.03157
-40.279575 -10.924626 134.0001
-37.74737 -10.714208 134.25444
-34.638027 -24.85633 133.58473
-35.342304 -19.084301 133.84016
-34.45684 -19.18833 133.54378
-35.36438 -25.166348 133.77164
-37.639355 -14.718213 134.21385
-36.18151 -18.866331 133.96764
-36.988373 -25.66478 133.91205
-39.550053 -23.583523 133.89668
-38.619812 -25.515705 133.90608
-39.63254 -9.358242 134.07695
-42.177975 -14.639747 133.6672
-42.45007 -10.598173 133.57462
-41.65447 -17.571142 133.77344
-42.25399 -21.465971 133.66687
-35.081367 -20.132147 133.76659
-35.374912 -29.749485 133.71388
-33.410366 -32.868263 132.9057
-40.34494 -28.684347 133.72388
-36.517612 -28.51974 133.8479
-36.779156 -35.006382 133.70758
-38.28709 -33.776638 133.6967
-39.060535 -27.602758 133.83476
-38.88868 -17.609058 134.0297
-41.040966 -22.567066 133.81628
-42.064476 -15.630595 133.69308
-44.745728 -18.957853 132.70822
-42.496647 -29.139812 133.46443
-45.58617 -22.44135 132.06984
-43.33122 -29.490265 133.26021
-40.816074 -36.51973 133.403
-41.70922 -35.270267 133.3168
-43.997585 -30.069725 132.98586
-42.562157 -40.628815 132.70258
-39.53043 -35.114464 133.58725
-42.409958 -35.708374 133.13712
-38.68579 -39.978294 133.43393
-43.38442 -41.156914 132.21613
-44.64617 -37.91317 131.7521
-45.43232 -35.359715 131.24617
-45.00012 -34.911446 131.89507
-43.5481 -39.966583 132.27896
-44.98729 -33.1181 132.1733
-43.80152 -35.48414 132.65337
-43.9918 -31.1497 132.91689
-45.1511 -31.089455 132.21304
-44.619072 -29.628506 132.70044
-44.75939 -28.620987 132.65811
-42.245552 -30.90787 133.45407
-41.047443 -35.752342 133.40845
-40.9462 -34.95426 133.4555
-39.85562 -33.058838 133.63313
-42.88157 -33.118683 133.17744
-45.614986 -30.203775 131.78569
-45.37471 -28.265938 132.2035
-45.612373 -23.607838 132.06165
-43.79663 -25.314161 133.22362
-43.104935 -27.23193 133.397
-43.186005 -24.487432 133.4254
-42.501373 -27.996326 133.49959
-41.435223 -25.478653 133.7139
-40.08718 -32.085674 133.6444
-39.50653 -28.567766 133.7829
-44.391422 -26.06449 132.94255
-45.12041 -24.258099 132.52147
-46.01791 -21.893818 131.48659
-46.052994 -20.810284 131.3011
-44.325344 -21.549757 133.024
-44.140327 -20.52608 133.1091
-44.179977 -18.372538 133.0411
-43.763042 -22.151491 133.2737
-43.585464 -21.174725 133.33658
-43.007957 -21.803812 133.50629
-41.615356 -21.270489 133.76376
-41.004704 -21.64773 133.83249
-40.224342 -18.186075 133.93918
-37.345284 -39.046734 133.55539
-37.50847 -35.397995 133.67842
-38.289318 -35.888657 133.62953
-38.102047 -30.845034 133.79094
-38.64739 -28.56909 133.83205
-38.497154 -32.69973 133.71994
-39.64202 -30.385448 133.72437
-36.57359 -34.03644 133.7298
-37.737995 -33.057713 133.74031
-35.252068 -32.752895 133.65645
-37.076046 -29.186287 133.84839
-34.489662 -35.442356 133.45801
-36.015434 -35.574596 133.67114
-33.90436 -37.357983 133.31189
-33.75647 -35.774075 133.21562
-36.05967 -33.124195 133.72684
-39.378567 -25.662241 133.86658
-40.055767 -27.706333 133.77045
-33.909317 -32.333855 133.24846
-32.931133 -34.575172 132.50238
-33.481182 -31.877647 132.92033
-33.552753 -30.904385 132.96202
-33.56527 -27.93907 132.90245
-35.677376 -28.700924 133.76888
-45.3213 -18.487305 132.19232
-45.764153 -18.07496 131.54752
-46.062813 -18.725948 130.93178
-41.850227 -20.445358 133.73167
-41.866196 -16.61616 133.73451
-41.599243 -11.903944 133.79077
-45.71151 -16.178185 131.33437
-44.74704 -16.773436 132.6064
-45.242443 -16.218365 132.07214
-45.07866 -13.220899 131.95105
-43.617237 -17.764845 133.30191
-43.698288 -16.90393 133.2516
-43.640354 -13.988213 133.18452
-42.99168 -9.990561 133.33199
-40.58375 -13.406799 133.95186
-39.971016 -10.180592 134.03792
-44.83379 -11.365995 131.97975
-44.285133 -11.40384 132.60934
-43.66895 -11.687904 133.07452
-43.49562 -9.256394 132.99518
-43.2783 -6.341025 132.76909
-41.229767 -6.7194657 133.8008
-39.39185 -8.491555 134.10072
-39.467285 -18.443672 133.98415
-39.72892 -22.528772 133.90613
-37.41971 -24.743126 133.93459
-36.584713 -24.572706 133.91556
-35.957615 -19.989756 133.92421
-37.59939 -19.543947 134.01363
-37.558144 -16.6483 134.09926
-39.103546 -16.731085 134.038
-40.34475 -17.105478 133.94382
-38.512177 -14.857906 134.15114
-36.08081 -15.970875 134.08173
-33.974705 -22.765957 133.27611
-34.54765 -23.97061 133.56137
-33.816612 -19.791084 133.16672
-35.262486 -24.178633 133.7651
-33.420746 -15.813995 133.10713
-35.18281 -15.347523 133.96736
-37.960285 -15.717251 134.1477
-38.311375 -11.8622 134.21716
-37.051323 -11.085539 134.29733
-37.008183 -12.7321205 134.30112
-36.612225 -11.870709 134.3134
-35.800957 -11.633172 134.29738
-36.879913 -10.170638 134.29367
-33.35555 -14.820579 133.19177
-33.77991 -10.0550785 134.01334
-34.973244 -11.049844 134.21759
-34.451317 -10.038532 134.18169
-35.563614 -9.059477 134.28827
-32.98855 -8.712256 133.82452
-33.87757 -8.207861 134.13593
-38.659954 -8.249995 134.17545
-38.840946 -6.7086015 134.14607
-37.912533 -8.539397 134.22661
-37.44698 -4.437825 134.14122
-36.411144 -7.162783 134.29202
-36.938774 -8.286177 134.27493
-36.78636 -5.2179594 134.2576
-37.05644 -6.3003197 134.26358
-35.04763 -3.9212236 134.27087
-31.991278 -5.1991596 133.84169
-33.177933 -4.2046237 134.21698
-34.064854 -4.018853 134.27592
-33.419903 -6.0174236 134.17276
-32.29371 -4.351539 134.03677
-34.854633 -18.182756 133.72112
-38.669186 -18.580704 134.01913
-41.347652 -9.566876 133.83734
-34.165985 -26.44791 133.37082
-34.90859 -26.82003 133.65546
-34.632107 -33.440327 133.52432
-38.09781 -27.452232 133.88185
-40.550175 -16.14135 133.93642
3 239 4 364 
3 653 4 239 
3 364 472 239 
3 364 4 658 
3 239 526 653 
3 653 473 4 
3 472 364 1 
3 240 239 472 
3 4 655 658 
3 658 1 364 
3 526 474 653 
3 470 526 239 
3 655 4 473 
3 473 653 238 
3 665 472 1 
3 240 470 239 
3 240 472 467 
3 658 655 595 
3 1 658 471 
3 474 526 389 
3 474 238 653 
3 526 470 660 
3 655 473 388 
3 528 473 238 
3 467 472 665 
3 1 657 665 
3 470 240 525 
3 251 240 467 
3 595 471 658 
3 655 527 595 
3 471 657 1 
3 389 654 474 
3 526 660 389 
3 238 474 475 
3 660 470 390 
3 473 528 388 
3 388 527 655 
3 528 238 656 
3 665 659 467 
3 665 657 172 
3 240 251 525 
3 390 470 525 
3 467 466 251 
3 236 471 595 
3 387 595 527 
3 657 471 594 
3 654 389 748 
3 475 474 654 
3 660 469 389 
3 475 656 238 
3 390 593 660 
3 528 635 388 
3 625 527 388 
3 656 152 528 
3 659 466 467 
3 665 465 659 
3 468 172 657 
3 172 465 665 
3 590 525 251 
3 525 590 390 
3 253 251 466 
3 595 387 236 
3 471 236 651 
3 527 36 387 
3 594 468 657 
3 651 594 471 
3 748 596 654 
3 389 469 748 
3 475 654 636 
3 593 469 660 
3 475 151 656 
3 673 593 390 
3 625 388 635 
3 635 528 152 
3 527 625 36 
3 656 137 152 
3 172 468 246 
3 246 465 172 
3 253 590 251 
3 390 590 673 
3 236 387 369 
3 652 651 236 
3 608 387 36 
3 468 594 662 
3 594 651 65 
3 596 748 66 
3 596 636 654 
3 241 748 469 
3 636 151 475 
3 593 362 469 
3 137 656 151 
3 673 456 593 
3 635 168 625 
3 635 152 349 
3 6 36 625 
3 137 122 152 
3 662 246 468 
3 127 590 253 
3 590 460 673 
3 608 369 387 
3 369 652 236 
3 651 652 564 
3 36 361 608 
3 594 65 662 
3 651 564 65 
3 66 150 596 
3 347 66 748 
3 667 636 596 
3 469 362 241 
3 748 241 347 
3 636 592 151 
3 456 362 593 
3 151 153 137 
3 394 456 673 
3 6 625 168 
3 349 168 635 
3 349 152 122 
3 36 6 361 
3 153 122 137 
3 246 662 244 
3 590 127 460 
3 394 673 460 
3 369 608 170 
3 170 652 369 
3 192 564 652 
3 193 608 361 
3 65 128 662 
3 564 386 65 
3 150 66 666 
3 596 150 667 
3 66 347 583 
3 667 592 636 
3 67 241 362 
3 581 347 241 
3 153 151 592 
3 362 456 67 
3 126 456 394 
3 168 537 6 
3 205 168 349 
3 375 349 122 
3 6 537 361 
3 122 153 536 
3 662 128 244 
3 608 193 170 
3 170 192 652 
3 530 564 192 
3 361 624 193 
3 128 65 386 
3 564 530 386 
3 150 666 130 
3 583 666 66 
3 150 163 667 
3 5 583 347 
3 592 667 133 
3 345 241 67 
3 241 345 581 
3 347 581 699 
3 592 140 153 
3 456 126 67 
3 394 746 126 
3 168 136 537 
3 136 168 205 
3 349 375 205 
3 122 51 375 
3 624 361 537 
3 536 51 122 
3 536 153 140 
3 245 244 128 
3 540 170 193 
3 192 170 493 
3 494 530 192 
3 623 193 624 
3 386 245 128 
3 386 530 235 
3 130 163 150 
3 130 666 252 
3 666 583 443 
3 163 204 667 
3 5 443 583 
3 5 347 699 
3 133 140 592 
3 133 667 204 
3 345 67 126 
3 581 345 346 
3 699 581 700 
3 126 746 257 
3 154 537 136 
3 205 214 136 
3 165 205 375 
3 622 375 51 
3 537 154 624 
3 536 601 51 
3 360 536 140 
3 245 391 244 
3 540 493 170 
3 193 604 540 
3 192 493 494 
3 530 494 563 
3 623 624 605 
3 193 623 604 
3 386 237 245 
3 235 530 563 
3 237 386 235 
3 365 163 130 
3 350 252 666 
3 252 341 130 
3 666 443 350 
3 204 163 365 
3 461 443 5 
3 699 438 5 
3 140 133 360 
3 133 204 485 
3 126 257 345 
3 345 257 346 
3 581 346 700 
3 699 700 173 
3 257 746 75 
3 154 136 374 
3 165 214 205 
3 374 136 214 
3 375 622 165 
3 51 486 622 
3 605 624 154 
3 601 536 360 
3 486 51 601 
3 245 352 391 
3 493 540 368 
3 495 540 604 
3 191 494 493 
3 563 494 561 
3 155 623 605 
3 623 155 604 
3 237 352 245 
3 563 650 235 
3 235 529 237 
3 130 341 365 
3 143 252 350 
3 252 143 341 
3 582 350 443 
3 365 483 204 
3 582 443 461 
3 461 5 438 
3 173 438 699 
3 485 360 133 
3 485 204 483 
3 578 346 257 
3 700 346 455 
3 173 700 512 
3 75 578 257 
3 29 154 374 
3 165 167 214 
3 374 214 626 
3 490 165 622 
3 490 622 486 
3 154 29 605 
3 633 601 360 
3 601 603 486 
3 463 391 352 
3 540 495 368 
3 493 368 191 
3 541 495 604 
3 494 191 561 
3 561 650 563 
3 605 609 155 
3 541 604 155 
3 352 237 69 
3 529 235 650 
3 69 237 529 
3 365 341 634 
3 350 392 143 
3 634 341 143 
3 392 350 582 
3 634 483 365 
3 461 0 582 
3 438 442 461 
3 147 438 173 
3 360 485 633 
3 483 487 485 
3 455 346 578 
3 455 512 700 
3 512 437 173 
3 578 75 575 
3 374 359 29 
3 626 214 167 
3 167 165 490 
3 626 359 374 
3 376 490 486 
3 609 605 29 
3 633 57 601 
3 603 601 57 
3 486 603 376 
3 352 69 463 
3 391 463 663 
3 495 555 368 
3 368 562 191 
3 495 541 555 
3 554 561 191 
3 650 561 35 
3 497 155 609 
3 541 155 497 
3 529 650 194 
3 529 242 69 
3 392 363 143 
3 143 363 634 
3 392 582 515 
3 164 483 634 
3 0 698 582 
3 442 0 461 
3 442 438 147 
3 173 437 147 
3 633 485 487 
3 487 483 164 
3 711 455 578 
3 455 711 512 
3 437 512 3 
3 575 711 578 
3 29 359 211 
3 535 626 167 
3 490 166 167 
3 491 359 626 
3 166 490 376 
3 211 609 29 
3 633 631 57 
3 463 69 42 
3 663 463 70 
3 243 391 663 
3 562 368 555 
3 191 562 554 
3 498 555 541 
3 554 610 561 
3 35 561 610 
3 35 194 650 
3 497 498 541 
3 529 194 37 
3 69 242 42 
3 37 242 529 
3 363 392 53 
3 380 634 363 
3 515 53 392 
3 698 515 582 
3 380 164 634 
3 698 0 199 
3 0 442 148 
3 442 147 146 
3 158 147 437 
3 633 487 631 
3 164 224 487 
3 2 512 711 
3 3 289 437 
3 2 3 512 
3 711 575 709 
3 211 359 171 
3 535 167 166 
3 626 535 491 
3 491 171 359 
3 376 618 166 
3 609 211 492 
3 57 631 223 
3 463 42 197 
3 197 70 463 
3 244 391 243 
3 562 555 183 
3 562 560 554 
3 555 498 543 
3 610 554 190 
3 33 35 610 
3 497 184 498 
3 53 484 363 
3 363 484 380 
3 53 515 598 
3 406 515 698 
3 488 164 380 
3 0 148 199 
3 698 199 406 
3 146 148 442 
3 158 146 147 
3 437 289 158 
3 631 487 224 
3 164 488 224 
3 289 3 454 
3 709 2 711 
3 171 617 211 
3 166 215 535 
3 535 215 491 
3 171 491 373 
3 166 618 215 
3 618 376 606 
3 492 211 617 
3 609 492 497 
3 132 223 631 
3 223 379 57 
3 243 661 244 
3 183 555 543 
3 560 562 183 
3 554 560 190 
3 190 189 610 
3 610 189 33 
3 497 556 184 
3 498 184 496 
3 53 227 484 
3 484 532 380 
3 598 227 53 
3 598 515 406 
3 632 488 380 
3 199 148 138 
3 406 199 440 
3 464 148 146 
3 158 436 146 
3 124 158 289 
3 631 224 132 
3 132 224 488 
3 289 454 124 
3 432 2 709 
3 215 373 491 
3 373 212 171 
3 376 603 606 
3 617 48 492 
3 556 497 492 
3 52 57 379 
3 222 379 223 
3 661 246 244 
3 543 542 183 
3 553 560 183 
3 190 560 367 
3 189 190 367 
3 556 539 184 
3 496 543 498 
3 532 484 227 
3 380 532 632 
3 598 348 227 
3 598 406 648 
3 464 138 148 
3 199 138 288 
3 288 440 199 
3 440 648 406 
3 436 464 146 
3 436 158 124 
3 488 630 132 
3 124 454 701 
3 2 432 294 
3 215 538 373 
3 373 616 212 
3 169 171 212 
3 603 52 606 
3 556 492 48 
3 52 603 57 
3 223 637 222 
3 246 661 72 
3 542 553 183 
3 560 553 367 
3 367 32 189 
3 539 556 48 
3 496 184 539 
3 543 496 366 
3 532 227 59 
3 532 131 632 
3 348 59 227 
3 348 598 648 
3 138 464 149 
3 441 288 138 
3 440 288 203 
3 648 440 478 
3 464 436 157 
3 124 434 436 
3 630 488 632 
3 701 434 124 
3 701 454 589 
3 294 3 2 
3 538 215 618 
3 616 373 49 
3 171 169 617 
3 132 637 223 
3 72 465 246 
3 553 542 27 
3 28 367 553 
3 32 367 28 
3 539 210 496 
3 366 542 543 
3 225 532 59 
3 632 131 58 
3 131 532 225 
3 59 348 588 
3 647 348 648 
3 441 138 149 
3 464 702 149 
3 288 441 476 
3 478 440 203 
3 476 203 288 
3 648 478 647 
3 434 157 436 
3 157 702 464 
3 632 353 630 
3 407 434 701 
3 589 576 701 
3 454 511 589 
3 3 294 511 
3 538 618 216 
3 538 49 373 
3 617 169 372 
3 637 132 630 
3 465 72 747 
3 553 27 28 
3 366 496 210 
3 607 542 366 
3 59 646 225 
3 230 58 131 
3 353 632 58 
3 131 225 230 
3 646 59 588 
3 588 348 647 
3 441 149 743 
3 702 514 149 
3 476 441 697 
3 478 203 677 
3 476 439 203 
3 677 647 478 
3 157 434 407 
3 157 407 702 
3 580 407 701 
3 701 576 580 
3 511 454 3 
3 606 216 618 
3 49 538 619 
3 617 372 48 
3 226 637 630 
3 659 465 747 
3 28 27 552 
3 615 366 210 
3 542 607 27 
3 646 644 225 
3 644 230 225 
3 480 646 588 
3 677 588 647 
3 149 514 743 
3 743 697 441 
3 435 514 702 
3 649 476 697 
3 677 203 260 
3 439 476 649 
3 260 203 439 
3 407 435 702 
3 580 435 407 
3 336 580 576 
3 216 606 620 
3 216 619 538 
3 550 48 372 
3 630 353 226 
3 659 747 393 
3 552 182 28 
3 615 607 366 
3 552 27 607 
3 645 644 646 
3 677 480 588 
3 646 480 645 
3 514 337 743 
3 697 743 597 
3 514 435 290 
3 477 649 697 
3 260 384 677 
3 139 439 649 
3 439 234 260 
3 580 198 435 
3 198 580 336 
3 52 620 606 
3 213 619 216 
3 48 550 208 
3 231 226 353 
3 393 466 659 
3 182 552 181 
3 611 607 615 
3 607 23 552 
3 480 677 384 
3 645 480 232 
3 337 597 743 
3 337 514 290 
3 697 597 477 
3 290 435 198 
3 649 477 705 
3 260 521 384 
3 705 139 649 
3 439 139 234 
3 260 234 520 
3 336 92 198 
3 52 621 620 
3 216 620 213 
3 353 58 231 
3 182 181 22 
3 607 611 23 
3 23 181 552 
3 384 232 480 
3 597 337 410 
3 337 290 703 
3 477 597 704 
3 292 290 198 
3 477 291 705 
3 521 260 520 
3 521 62 384 
3 139 705 385 
3 139 587 234 
3 587 520 234 
3 96 92 336 
3 198 92 292 
3 621 52 379 
3 355 213 620 
3 231 58 230 
3 178 181 23 
3 232 384 62 
3 410 704 597 
3 703 410 337 
3 292 703 290 
3 477 704 291 
3 705 291 749 
3 520 452 521 
3 261 62 521 
3 587 139 385 
3 749 385 705 
3 520 587 339 
3 742 96 336 
3 297 92 96 
3 707 292 92 
3 379 50 621 
3 620 621 355 
3 231 230 129 
3 22 181 178 
3 704 410 433 
3 714 410 703 
3 703 292 293 
3 433 291 704 
3 749 291 408 
3 521 452 261 
3 452 520 339 
3 678 587 385 
3 749 479 385 
3 339 587 678 
3 336 576 742 
3 92 297 707 
3 292 707 293 
3 50 379 222 
3 628 355 621 
3 129 230 644 
3 178 551 22 
3 714 433 410 
3 293 714 703 
3 433 513 291 
3 513 408 291 
3 749 408 64 
3 261 452 684 
3 339 519 452 
3 385 479 678 
3 479 749 64 
3 358 339 678 
3 707 297 713 
3 93 293 707 
3 220 50 222 
3 50 628 621 
3 644 641 129 
3 706 433 714 
3 293 579 714 
3 513 433 706 
3 408 513 572 
3 201 64 408 
3 452 519 684 
3 519 339 358 
3 479 599 678 
3 262 479 64 
3 678 599 358 
3 713 93 707 
3 93 300 293 
3 222 637 220 
3 628 50 218 
3 644 645 641 
3 714 579 706 
3 300 579 293 
3 428 513 706 
3 408 572 201 
3 428 572 513 
3 64 201 262 
3 519 685 684 
3 358 265 519 
3 599 479 262 
3 358 599 453 
3 93 713 299 
3 93 302 300 
3 56 220 637 
3 50 220 218 
3 641 645 642 
3 579 571 706 
3 579 300 99 
3 706 571 428 
3 201 572 688 
3 428 510 572 
3 201 357 262 
3 685 519 265 
3 265 358 453 
3 599 262 585 
3 585 453 599 
3 299 302 93 
3 302 301 300 
3 56 637 226 
3 220 221 218 
3 232 642 645 
3 571 579 99 
3 99 300 301 
3 571 430 428 
3 688 357 201 
3 688 572 510 
3 510 428 430 
3 357 585 262 
3 202 265 453 
3 453 585 267 
3 308 302 299 
3 301 302 100 
3 226 638 56 
3 221 220 56 
3 642 232 233 
3 99 431 571 
3 99 301 717 
3 431 430 571 
3 200 357 688 
3 510 447 688 
3 510 430 304 
3 585 357 402 
3 453 267 202 
3 399 265 202 
3 402 267 585 
3 302 308 100 
3 717 301 100 
3 638 226 231 
3 56 489 221 
3 232 62 233 
3 431 99 717 
3 430 431 715 
3 688 517 200 
3 200 402 357 
3 517 688 447 
3 447 510 304 
3 715 304 430 
3 202 267 686 
3 399 685 265 
3 267 402 450 
3 100 308 311 
3 100 718 717 
3 231 481 638 
3 489 56 638 
3 261 233 62 
3 431 717 305 
3 715 431 305 
3 200 517 679 
3 402 200 270 
3 517 447 271 
3 447 304 271 
3 304 715 123 
3 450 686 267 
3 685 399 63 
3 270 450 402 
3 100 311 719 
3 310 311 308 
3 719 718 100 
3 718 305 717 
3 129 481 231 
3 629 489 638 
3 643 233 261 
3 715 305 574 
3 679 270 200 
3 159 679 517 
3 271 159 517 
3 304 509 271 
3 123 509 304 
3 574 123 715 
3 686 450 79 
3 684 685 63 
3 270 160 450 
3 723 719 311 
3 426 310 308 
3 311 310 103 
3 719 427 718 
3 716 305 718 
3 381 481 129 
3 629 638 481 
3 643 261 684 
3 305 716 574 
3 270 679 448 
3 679 159 338 
3 159 271 573 
3 509 573 271 
3 411 509 123 
3 123 574 508 
3 160 79 450 
3 63 643 684 
3 160 270 448 
3 719 723 306 
3 308 98 426 
3 310 426 416 
3 723 311 103 
3 716 718 427 
3 427 719 306 
3 129 641 381 
3 629 481 602 
3 720 574 716 
3 338 448 679 
3 401 338 159 
3 159 573 401 
3 573 509 689 
3 508 411 123 
3 689 509 411 
3 307 508 574 
3 79 160 692 
3 269 160 448 
3 306 723 312 
3 98 308 299 
3 103 310 416 
3 723 103 145 
3 720 716 427 
3 427 306 413 
3 641 228 381 
3 381 602 481 
3 574 720 307 
3 586 448 338 
3 338 401 744 
3 401 573 689 
3 508 101 411 
3 411 584 689 
3 508 307 730 
3 269 692 160 
3 448 586 269 
3 312 413 306 
3 724 312 723 
3 98 299 713 
3 416 505 103 
3 145 724 723 
3 413 720 427 
3 642 228 641 
3 602 381 60 
3 307 720 570 
3 338 446 586 
3 744 446 338 
3 401 429 744 
3 689 429 401 
3 101 584 411 
3 730 101 508 
3 584 429 689 
3 733 730 307 
3 275 692 269 
3 269 586 687 
3 725 413 312 
3 312 724 313 
3 505 145 103 
3 722 724 145 
3 413 570 720 
3 228 642 382 
3 531 60 381 
3 733 307 570 
3 446 744 278 
3 81 744 429 
3 584 101 696 
3 730 728 101 
3 429 584 303 
3 730 733 324 
3 687 275 269 
3 446 687 586 
3 570 413 725 
3 313 725 312 
3 724 316 313 
3 315 145 505 
3 724 722 316 
3 382 642 233 
3 60 531 396 
3 570 102 733 
3 81 278 744 
3 429 303 81 
3 101 728 696 
3 696 303 584 
3 728 730 321 
3 324 321 730 
3 324 733 732 
3 687 693 275 
3 446 277 687 
3 725 102 570 
3 725 313 414 
3 316 727 313 
3 145 315 722 
3 600 382 233 
3 229 396 531 
3 732 733 102 
3 81 516 278 
3 444 81 303 
3 696 728 318 
3 696 444 303 
3 318 728 321 
3 569 321 324 
3 735 324 732 
3 693 687 277 
3 278 277 446 
3 102 725 414 
3 313 727 414 
3 415 722 315 
3 233 643 600 
3 396 229 259 
3 102 314 732 
3 445 516 81 
3 444 445 81 
3 318 444 696 
3 321 729 318 
3 735 569 324 
3 321 569 729 
3 732 420 735 
3 277 84 693 
3 277 278 280 
3 414 314 102 
3 727 506 414 
3 415 316 722 
3 643 61 600 
3 674 259 229 
3 503 732 314 
3 695 516 445 
3 445 444 418 
3 418 444 318 
3 729 418 318 
3 735 504 569 
3 109 729 569 
3 734 735 420 
3 420 732 503 
3 280 84 277 
3 278 516 280 
3 314 414 506 
3 506 727 107 
3 316 415 726 
3 61 643 63 
3 674 675 259 
3 314 104 503 
3 87 695 445 
3 445 418 87 
3 418 729 320 
3 109 569 504 
3 504 735 734 
3 109 320 729 
3 420 567 734 
3 420 503 326 
3 84 280 281 
3 405 280 516 
3 506 104 314 
3 506 107 502 
3 726 727 316 
3 61 63 681 
3 258 675 674 
3 326 503 104 
3 695 87 286 
3 418 320 87 
3 504 323 109 
3 734 731 504 
3 109 319 320 
3 567 420 326 
3 567 134 734 
3 281 280 405 
3 516 695 405 
3 502 104 506 
3 107 740 502 
3 105 727 726 
3 399 681 63 
3 258 351 675 
3 422 326 104 
3 91 286 87 
3 320 91 87 
3 109 323 319 
3 504 731 323 
3 731 734 134 
3 91 320 319 
3 567 326 500 
3 111 134 567 
3 281 405 86 
3 405 695 282 
3 104 502 422 
3 422 502 740 
3 727 105 107 
3 681 399 449 
3 351 258 682 
3 326 422 500 
3 90 286 91 
3 500 736 567 
3 736 111 567 
3 405 282 86 
3 286 282 695 
3 422 740 327 
3 421 107 105 
3 449 399 202 
3 682 680 351 
3 500 422 327 
3 90 91 419 
3 286 90 89 
3 736 500 739 
3 111 736 566 
3 282 284 86 
3 286 89 282 
3 327 740 329 
3 107 421 740 
3 202 266 449 
3 682 398 680 
3 327 739 500 
3 419 91 319 
3 736 739 116 
3 116 566 736 
3 284 282 89 
3 329 738 327 
3 328 740 421 
3 266 202 686 
3 738 739 327 
3 319 322 419 
3 739 332 116 
3 329 741 738 
3 329 740 328 
3 266 686 400 
3 739 738 332 
3 323 322 319 
3 741 113 738 
3 400 686 79 
3 113 332 738 
3 322 323 110 
3 400 79 80 
3 332 113 333 
3 731 110 323 
3 692 80 79 
3 110 731 325 
3 80 692 691 
3 325 731 134 
3 691 692 275 
3 134 111 325 
3 111 501 325 
3 501 111 566 
3 458 254 459 
3 459 671 458 
3 256 395 672 
3 254 255 522 
3 255 672 522 
3 174 7 176 
3 11 8 176 
3 9 175 544 
3 12 10 544 
3 7 13 176 
3 176 15 11 
3 11 15 16 
3 16 15 18 
3 15 14 18 
3 18 17 16 
3 18 19 17 
3 546 12 544 
3 20 179 180 
3 17 22 551 
3 22 17 24 
3 19 25 24 
3 17 19 24 
3 24 25 26 
3 182 26 28 
3 26 25 30 
3 28 26 32 
3 558 32 26 
3 195 35 33 
3 37 41 242 
3 565 43 42 
3 42 43 197 
3 565 42 242 
3 44 197 43 
3 39 40 44 
3 398 125 680 
3 511 156 409 
3 135 294 708 
3 524 670 671 
3 524 459 253 
3 550 372 356 
3 371 49 47 
3 619 627 47 
3 55 54 378 
3 55 218 221 
3 71 661 664 
3 70 44 247 
3 248 74 68 
3 74 248 250 
3 340 72 71 
3 127 254 522 
3 76 457 162 
3 451 80 77 
3 691 690 77 
3 404 276 82 
3 83 274 279 
3 694 83 279 
3 694 86 85 
3 95 94 344 
3 742 94 343 
3 712 295 296 
3 343 96 742 
3 97 712 721 
3 417 105 106 
3 566 116 115 
3 116 332 331 
3 120 119 333 
3 333 114 120 
3 117 119 120 
3 117 120 118 
3 112 108 335 
3 335 334 121 
3 335 114 112 
3 120 114 335 
3 118 120 121 
3 268 398 682 
3 161 708 432 
3 255 254 458 
3 522 460 127 
3 746 395 745 
3 460 522 395 
3 629 533 482 
3 141 612 21 
3 142 534 627 
3 144 507 416 
3 518 397 683 
3 671 459 524 
3 668 523 591 
3 228 531 381 
3 499 548 20 
3 372 169 614 
3 575 76 162 
3 683 397 451 
3 395 256 745 
3 745 75 746 
3 72 340 747 
3 747 340 523 
3 615 499 180 
3 710 577 409 
3 576 589 577 
3 457 745 256 
3 343 342 295 
3 295 342 296 
3 342 343 94 
3 344 94 577 
3 175 8 11 
3 176 8 174 
3 544 177 546 
3 545 175 11 
3 11 16 545 
3 15 176 13 
3 546 23 611 
3 12 179 10 
3 12 180 179 
3 611 180 12 
3 551 177 545 
3 551 16 17 
3 24 182 22 
3 26 182 24 
3 558 26 30 
3 30 185 558 
3 186 557 31 
3 33 186 31 
3 187 31 557 
3 559 34 41 
3 186 189 32 
3 194 195 559 
3 31 195 33 
3 37 559 41 
3 565 38 43 
3 188 195 31 
3 242 41 565 
3 196 41 34 
3 43 39 44 
3 70 197 44 
3 354 221 219 
3 221 354 55 
3 217 355 628 
3 356 614 613 
3 614 356 372 
3 613 45 356 
3 356 45 21 
3 356 21 550 
3 619 47 49 
3 378 218 55 
3 639 602 60 
3 61 674 600 
3 60 396 640 
3 71 72 661 
3 70 74 663 
3 664 243 250 
3 247 74 70 
3 40 247 44 
3 250 73 664 
3 745 457 76 
3 577 710 344 
3 674 61 258 
3 683 451 77 
3 77 78 683 
3 125 398 263 
3 80 451 400 
3 78 77 690 
3 403 404 82 
3 276 274 82 
3 691 77 80 
3 84 276 693 
3 279 276 84 
3 281 279 84 
3 85 283 694 
3 283 85 88 
3 86 284 85 
3 284 89 285 
3 90 285 89 
3 419 287 90 
3 343 298 96 
3 94 95 342 
3 95 296 342 
3 97 298 295 
3 713 97 98 
3 298 297 96 
3 721 412 97 
3 412 98 97 
3 726 106 105 
3 568 106 726 
3 417 421 105 
3 741 112 114 
3 331 115 116 
3 331 332 119 
3 333 119 332 
3 114 333 113 
3 335 121 120 
3 112 741 737 
3 144 426 412 
3 507 505 416 
3 156 511 135 
3 294 135 511 
3 668 670 524 
3 462 591 523 
3 676 259 675 
3 229 600 674 
3 531 228 382 
3 482 489 629 
3 217 628 378 
3 614 206 613 
3 141 207 549 
3 548 499 549 
3 549 499 547 
3 547 499 615 
3 557 186 558 
3 558 185 557 
3 32 558 186 
3 559 195 188 
3 46 371 47 
3 539 208 210 
3 49 371 616 
3 614 212 209 
3 627 213 355 
3 377 378 54 
3 664 661 243 
3 462 523 340 
3 383 396 259 
3 266 268 449 
3 273 403 272 
3 404 273 275 
3 273 690 691 
3 86 694 281 
3 742 577 94 
3 297 298 713 
3 412 309 144 
3 505 507 424 
3 424 315 505 
3 328 421 317 
3 113 741 114 
3 329 328 737 
3 415 425 568 
3 589 511 409 
3 577 742 576 
3 710 409 156 
3 709 575 162 
3 432 709 161 
3 397 266 400 
3 451 397 400 
3 161 709 162 
3 522 672 395 
3 395 394 460 
3 127 253 459 
3 395 746 394 
3 524 466 393 
3 747 523 393 
3 668 524 393 
3 466 524 253 
3 219 489 482 
3 212 614 169 
3 208 539 48 
3 370 209 371 
3 371 46 370 
3 612 550 21 
3 546 178 23 
3 566 330 501 
3 726 415 568 
3 416 426 144 
3 98 412 426 
3 681 258 61 
3 683 264 518 
3 397 518 268 
3 668 591 670 
3 523 668 393 
3 602 639 533 
3 180 611 615 
3 8 175 9 
3 544 10 9 
3 177 544 175 
3 545 16 551 
3 545 177 175 
3 178 546 177 
3 12 546 611 
3 499 20 180 
3 549 612 141 
3 548 549 207 
3 547 615 210 
3 612 549 547 
3 208 550 612 
3 177 551 178 
3 33 189 186 
3 34 559 188 
3 35 195 194 
3 559 37 194 
3 196 565 41 
3 209 370 206 
3 206 614 209 
3 210 208 547 
3 209 616 371 
3 212 616 209 
3 627 619 213 
3 355 217 627 
3 627 217 142 
3 142 217 377 
3 378 377 217 
3 378 628 218 
3 489 219 221 
3 600 229 382 
3 531 382 229 
3 383 640 396 
3 60 640 639 
3 259 676 383 
3 243 663 250 
3 250 663 74 
3 71 664 73 
3 71 462 340 
3 249 250 248 
3 459 254 127 
3 71 669 462 
3 258 681 682 
3 682 449 268 
3 449 682 681 
3 398 268 518 
3 263 398 518 
3 268 266 397 
3 272 690 273 
3 404 403 273 
3 275 693 404 
3 276 279 274 
3 691 275 273 
3 404 693 276 
3 281 694 279 
3 83 694 283 
3 432 708 294 
3 295 712 97 
3 298 343 295 
3 97 713 298 
3 412 721 309 
3 409 577 589 
3 76 575 75 
3 315 424 425 
3 315 425 415 
3 75 745 76 
3 602 533 629 
3 737 423 112 
3 423 737 317 
3 317 737 328 
3 421 417 317 
3 737 741 329 
3 547 208 612 
