ply
format ascii 1.0
element vertex 783
property float x
property float y
property float z
element edge 783
property int vertex1
property int vertex2
end_header
74.27491 47.121223 26.665379 
74.71734 46.531387 26.227495 
75.00851 46.203022 25.365963 
75.41292 44.854603 23.954931 
75.363815 45.7038 23.699774 
75.55835 44.132652 22.49928 
-22.545431 -56.367085 1.8284659 
75.76298 43.640152 20.376942 
75.76814 42.97893 21.038733 
76.2603 42.29969 18.847597 
-30.995245 -54.184147 19.808943 
-27.079945 -54.6274 12.731703 
-28.21974 -54.57945 14.236294 
-29.533815 -54.441704 16.32084 
-30.220299 -54.306713 17.773531 
-29.688736 -54.430527 17.201527 
-22.150742 -52.25167 18.123453 
-9.466793 -58.329697 -9.763518 
-7.536368 -58.48572 -9.517613 
-15.745042 -56.747177 -9.776389 
59.93843 47.134388 33.344578 
60.25518 46.52288 32.790016 
-3.6985986 -57.35477 -9.648508 
-17.838976 -57.47112 -5.9171815 
-6.7251334 -52.593163 -2.2909036 
-8.288096 -52.650497 -1.0259624 
-9.482078 -52.423138 0.45422918 
-4.8514376 -52.74446 -3.3985534 
60.31263 45.44503 31.573881 
-1.7422543 -56.533863 -9.111548 
-0.5282078 -55.627216 -9.807718 
0.072244555 -54.913227 -9.674542 
1.327613 -53.56067 -9.465327 
3.1134675 -52.101547 -9.473512 
4.555799 -51.31382 -9.303755 
5.7867365 -50.336517 -10.069623 
6.4647493 -50.456165 -9.683583 
9.1299 -49.96828 -9.731454 
11.788212 -48.946354 -10.2129 
2.6351755 -52.25209 -6.366698 
3.0506651 -51.516907 -5.8840714 
5.835461 -51.439632 -7.4889164 
4.688135 -51.679176 -7.0428915 
6.3534293 -51.15874 -6.8273244 
10.421784 -50.11937 -6.9753103 
15.545429 -48.305794 -7.5990195 
18.955793 -46.30865 -7.2894325 
-12.232384 -52.012 4.5252323 
72.96522 48.087543 27.317558 
68.10577 50.419342 26.54751 
67.30162 50.56537 27.02193 
62.739555 52.78458 26.879196 
62.870716 42.72461 27.470957 
61.80868 42.692924 27.457905 
-32.123634 -53.925644 22.98546 
-33.790565 -53.633984 25.272396 
-34.49734 -53.411053 26.041046 
-25.933271 -51.24444 26.51184 
22.88267 53.537567 43.198204 
21.488237 53.09175 43.60996 
18.866272 53.746975 44.605896 
25.060783 53.81203 42.236294 
-29.76616 -51.194622 35.347107 
-42.53523 -51.751244 45.772453 
-44.235695 -51.37852 48.939697 
-40.415134 -51.05045 57.62139 
-31.819662 -52.247425 39.841347 
-34.607094 -51.883423 44.92574 
-34.92808 -51.12124 47.06866 
-35.73818 -51.663273 47.277214 
-35.912685 -51.196262 48.977364 
-37.433346 -51.555367 51.07715 
17.45749 58.472115 36.90149 
21.016914 58.39354 34.88343 
47.52962 51.46359 35.779613 
53.25057 49.451523 34.60938 
54.653175 48.919563 34.47921 
51.56363 49.9256 34.94935 
-40.84492 -50.97194 58.710747 
-41.531002 -50.90921 61.758194 
-41.736534 -50.54982 62.5884 
-49.137978 -51.51911 64.64475 
-48.29082 -52.008884 66.1416 
-43.937046 -51.271297 65.984695 
-44.34785 -51.016243 68.72235 
42.133232 52.580963 37.040897 
39.826107 52.28899 37.569828 
-49.916542 -52.09969 70.62086 
-50.93981 -51.846077 72.9384 
-45.042923 -51.460022 69.18988 
39.083763 52.820927 37.825066 
-50.854195 -52.05703 78.84181 
-51.380165 -51.857624 79.46139 
-51.440937 -51.407852 81.29477 
-46.478725 -50.02305 81.20616 
-46.172806 -49.907005 85.55974 
-45.675034 -48.74068 87.36517 
-50.110565 -51.291542 89.07013 
-49.177685 -51.28778 91.17433 
-47.759483 -50.085403 94.30318 
-47.500885 -49.60238 95.64767 
-45.198875 -47.765495 89.077545 
-45.02164 -48.01079 90.03409 
-45.049614 -48.28387 90.98494 
-44.532726 -48.009613 91.83803 
-45.02794 -48.458817 92.73091 
-44.18448 -48.127113 92.81354 
-43.18531 -48.22156 94.442245 
-42.69374 -48.505756 96.224884 
-42.70393 -48.660587 97.13135 
-41.87869 -48.35129 96.75752 
-43.435165 -49.138218 104.38828 
-42.718987 -49.228226 106.333565 
-45.54532 -48.679653 100.14464 
-41.291645 -48.65392 97.44081 
-41.23374 -49.02558 98.241264 
-44.939026 -48.66308 101.98639 
-44.67687 -48.653835 103.056 
-42.342354 -48.938576 107.91827 
-41.610878 -48.326942 110.12673 
-41.09242 -48.334637 110.73978 
-40.288544 -49.420815 99.49483 
-39.569004 -49.360542 99.99487 
-39.378994 -49.678844 100.83511 
-39.133583 -49.990425 101.620575 
-38.697365 -50.15037 103.09257 
-38.06735 -49.940006 103.82048 
-37.234467 -49.55527 106.27122 
-37.071915 -49.406487 105.32892 
-36.725433 -49.07124 106.87165 
-36.298153 -48.41577 108.26554 
-35.339417 -46.71408 110.2919 
-39.785614 -47.773525 112.52352 
-39.481976 -46.183395 115.0354 
-34.93798 -45.669437 111.511795 
-34.49096 -43.418285 115.04055 
-34.035122 -42.51937 116.4375 
-40.338345 -44.231735 119.786545 
-41.063293 -39.98732 119.38014 
-39.57327 -45.213467 116.55851 
-39.108147 -45.68197 115.90364 
-39.41622 -44.862595 117.41483 
-39.780514 -44.553017 119.27136 
-40.551918 -43.373905 119.41152 
-33.534958 -41.77993 116.983765 
-31.704271 -40.544456 127.681175 
-31.8814 -40.292374 129.77536 
-32.57811 -40.47284 131.30453 
-32.68116 -40.141354 132.03859 
-33.2636 -40.022 132.59215 
-32.602554 -39.395565 132.40202 
-33.286987 -39.161907 132.94621 
-41.597107 -36.77642 119.09968 
-41.934544 -35.02721 119.42071 
-42.31161 -33.549164 120.213264 
-33.563976 -38.261948 133.1749 
-33.724033 -34.83378 133.15126 
-33.082306 -37.602783 132.92786 
-41.717808 -8.887858 120.57085 
-40.7084 -5.4565015 120.22183 
-32.085365 -8.342511 133.34172 
-31.465714 -4.3617005 133.68686 
-30.731426 -2.4254482 133.34172 
-30.400696 -1.7461035 132.99594 
76.81724 40.750477 17.31582 
76.82468 40.87394 16.098783 
77.08105 40.087517 16.532093 
77.60425 39.179615 14.924376 
77.56525 39.270863 14.030982 
78.1763 38.013462 13.650162 
78.825455 36.651806 11.991613 
15.918003 58.42278 37.878624 
-3.4415119 54.551003 50.51408 
-6.454444 54.099133 51.977966 
-4.0923624 49.78858 57.682316 
-2.688805 50.453987 56.805622 
-4.8395514 49.912865 58.05823 
-0.2597431 55.33405 48.264923 
3.5814185 56.54629 45.514156 
4.1843314 51.824715 52.69232 
-1.014845 51.084103 55.723557 
-0.3465706 51.615326 55.068897 
1.9214787 50.956593 54.03215 
1.3809695 51.48784 54.369522 
10.532644 53.159424 48.87896 
8.855346 52.936028 49.822872 
8.025606 57.29407 42.500988 
7.2174263 57.23214 43.088455 
5.2056093 56.758698 44.92246 
6.1303196 56.853016 44.40778 
9.323742 57.44953 41.406487 
10.30156 57.189526 41.340023 
13.059982 58.087257 39.190823 
-24.879616 37.067894 91.804276 
-24.143492 37.042854 93.30643 
-23.153578 36.802982 95.181046 
-22.909597 36.36951 96.04445 
-23.146029 41.443394 75.72016 
-25.927925 45.269295 74.16722 
-25.169518 45.685574 73.66621 
-26.55088 44.831352 74.74882 
-24.021133 46.619347 72.659225 
-23.42328 47.160873 71.868805 
-22.762854 47.95069 70.2386 
-22.599825 47.53145 71.15723 
79.2481 35.76738 11.695268 
80.34096 34.220028 10.092585 
-26.373367 40.640045 81.324036 
-24.815687 41.218357 78.16425 
-25.692335 40.95973 79.68458 
-26.326609 39.538654 82.68578 
-30.013227 41.82869 84.34531 
-26.702839 39.637714 84.31739 
-26.47863 38.907963 84.99752 
-28.111526 39.0407 93.48727 
-24.64258 37.42941 92.59507 
-23.478062 37.459877 94.645905 
80.371315 34.377438 9.349744 
80.937195 32.965637 8.660019 
-12.739913 46.59662 64.55953 
-14.51315 45.43528 65.98616 
81.17822 32.390892 7.853301 
-16.610498 50.8207 62.9165 
-14.179959 51.048035 61.22768 
-15.932714 50.986057 62.157166 
-17.31736 50.669044 63.499737 
-18.830545 50.095352 65.31804 
-18.053938 50.249172 64.80686 
-18.80252 49.693718 66.12949 
-6.645254 50.119095 58.913216 
-18.692524 44.522152 69.86628 
-19.817833 43.72245 71.17129 
81.57347 31.191813 6.1607003 
81.978065 29.675552 5.354566 
82.36447 28.287865 3.8123639 
82.56815 27.559109 3.0804262 
74.30191 22.100208 7.220422 
74.71276 20.556355 5.94337 
75.0405 19.84918 5.4356585 
82.71104 26.756275 2.4230707 
82.88822 26.626883 1.4715558 
83.114136 26.076838 0.6413441 
83.23481 25.18967 0.31219453 
-27.55388 13.264086 113.56382 
-28.16978 28.516256 105.44393 
-25.3491 26.572222 103.286766 
-25.273203 27.499853 103.37726 
-25.840807 25.098112 105.171425 
-25.672 25.878 104.580505 
71.293465 33.07988 18.472725 
-23.999693 31.153673 100.549255 
-24.071918 31.763292 100.815 
-27.445084 36.28651 99.36662 
-27.30575 35.592396 100.13133 
-23.2751 34.025295 98.66178 
-23.072802 34.932087 98.327194 
-22.801062 36.0326 97.00483 
-23.61774 33.020596 99.71273 
-23.695496 33.851597 99.63482 
-28.485548 32.173386 102.95503 
-24.462488 30.110804 101.58272 
-26.340416 22.643963 106.70789 
72.470276 29.301628 14.302439 
-30.323555 19.820215 112.57534 
-38.9087 1.7769799 120.51785 
-36.552338 7.9894185 120.90467 
-37.047123 7.3866982 121.18427 
-27.869194 6.05695 119.40515 
-27.994118 6.187954 120.16676 
-28.099915 3.5941582 124.72339 
-28.037657 4.780061 122.725 
-36.726936 8.078688 121.7556 
-35.656033 8.985905 120.68892 
-35.4713 8.927001 121.749245 
-34.284206 9.879496 121.390884 
-30.472368 -1.0956962 132.78671 
-28.272606 2.3648648 126.510735 
-25.060606 38.022095 96.89133 
22.157997 -44.255203 -10.833868 
27.16931 -42.118084 -11.108704 
29.571539 -41.3145 -10.711591 
30.305008 -41.04208 -10.383808 
30.852247 -40.454308 -10.886096 
32.3421 -39.704067 -11.092637 
34.7264 -38.753284 -11.580435 
20.96926 -45.490837 -7.2619553 
22.810682 -44.72599 -6.9613333 
23.153625 -44.924152 -7.500761 
25.930874 -43.533165 -7.0942774 
28.345362 -42.50561 -7.497693 
31.955658 -39.712032 -6.797276 
33.963886 -39.160965 -11.253104 
36.41385 -38.287918 -11.642719 
33.476395 -39.078896 -6.798215 
37.28628 -38.22355 -11.26204 
37.991207 -37.74983 -11.571938 
39.392822 -37.03299 -11.438598 
43.31354 -33.67317 -12.107315 
44.02039 -33.36515 -11.91449 
73.46828 25.104143 10.115538 
50.575912 -28.7301 -12.145917 
51.50633 -28.17894 -11.889872 
53.627472 -26.81911 -12.550214 
37.75052 -37.742676 -6.831472 
39.76045 -36.838493 -6.991411 
41.64639 -35.622066 -7.044936 
44.053543 -34.156803 -7.4237103 
44.77501 -33.43392 -7.267231 
47.96898 -30.856657 -8.186745 
49.74789 -28.887499 -8.452306 
50.89099 -27.458895 -8.124733 
51.576916 -26.779135 -7.9729667 
57.050095 -25.57584 -12.276339 
56.10318 -25.757584 -9.21139 
58.825336 -24.84295 -8.863645 
58.68969 -24.88549 -12.557897 
63.787083 -23.354177 -13.359316 
60.33378 -24.636189 -9.122237 
62.83494 -24.123497 -9.366189 
65.71664 -23.22738 -13.187527 
69.64595 -22.362463 -13.123062 
65.756546 -23.441645 -9.872317 
72.683205 -21.558195 -13.064156 
73.60518 -21.168995 -13.352036 
75.24306 -20.668875 -13.217573 
60.782658 -23.989122 -8.680464 
76.82476 -20.107412 -13.234467 
76.30067 -20.053162 -11.2659025 
74.25009 23.49121 8.457939 
78.22665 -18.893272 -13.659679 
82.21997 -10.888876 -13.72851 
77.60667 -19.556728 -13.4456625 
79.308395 -17.493404 -13.776229 
79.50332 -18.210495 -12.012548 
79.14211 -17.506382 -11.018647 
79.92534 -17.306694 -13.356306 
79.65175 -17.490055 -11.485596 
80.827965 -14.995768 -13.669573 
79.50805 -16.796583 -11.023451 
83.53912 -7.012706 -13.666767 
84.10954 -5.1053457 -13.209611 
73.844376 20.836246 6.151005 
80.32953 -1.6232603 -7.120189 
76.97456 16.117085 3.505531 
77.370224 15.310868 3.067508 
78.636375 11.319476 0.3439166 
83.84139 23.24653 -2.6704874 
84.11425 21.950272 -3.5762603 
83.9648 22.3418 -4.424221 
84.26222 21.283607 -4.1655264 
84.47337 20.47352 -4.847359 
84.68977 20.145964 -5.845739 
84.84856 19.223446 -6.230818 
85.02208 17.875921 -7.4500546 
-23.313898 -51.655598 21.148708 
83.3264 25.143082 -0.6956504 
83.50017 24.220657 -0.90947956 
83.64563 24.053347 -1.6235387 
83.75815 23.496796 -1.9905654 
84.40065 1.9122348 -13.866375 
85.300514 6.4684877 -13.916589 
85.40831 7.9248652 -13.9724655 
84.729126 1.232388 -13.295735 
85.43874 4.8058457 -13.217206 
85.83602 6.8944106 -13.260797 
-44.8519 -51.509167 52.76122 
85.785576 9.578686 -13.248274 
85.41296 10.488918 -13.511658 
86.00577 9.763528 -12.476053 
85.832886 11.181923 -11.553289 
85.30565 15.036391 -10.513764 
80.23466 1.5900646 -5.4288635 
80.30828 3.115649 -4.4812374 
79.68705 8.787258 -1.1661873 
80.54593 5.2866106 -3.3255727 
80.13536 6.6800756 -2.4410768 
78.9626 10.535171 -0.14350033 
75.32682 45.471153 24.679674 
75.22571 46.244453 24.426 
75.48876 45.0062 23.030066 
-22.873325 -56.22769 2.6241539 
76.01997 42.479088 19.979216 
-25.893255 -54.8247 8.552296 
-25.587755 -54.890385 9.325066 
-30.797886 -54.239254 19.103592 
57.954334 48.698513 34.026806 
-16.587328 -56.436333 -9.694179 
-16.33739 -57.070286 -9.107805 
-11.037647 -58.48648 -9.350138 
60.43048 47.890514 33.354774 
-8.505983 -58.466175 -9.642614 
-6.561449 -58.366646 -9.331015 
-4.7801676 -57.71457 -9.630839 
-18.294304 -57.3852 -5.047412 
-15.272761 -57.980667 -8.418705 
-15.800537 -58.03614 -7.5330896 
-19.38847 -57.090073 -3.7608113 
-7.638515 -52.86227 -1.7418166 
-8.882947 -52.455597 -0.28154936 
-5.4944415 -53.340702 -3.331637 
-5.7627115 -52.43888 -2.849748 
60.355698 45.949142 32.165993 
-1.3303938 -56.171913 -9.826768 
0.69296074 -54.218838 -9.5809145 
1.9803112 -53.01887 -9.147477 
5.5230126 -50.858578 -9.453731 
7.246644 -49.971447 -10.012806 
12.859041 -48.66381 -10.181873 
15.859041 -47.53535 -10.23813 
59.666386 46.046303 32.459103 
7.37096 -50.98036 -6.9089384 
3.6342661 -51.928646 -6.6511188 
5.2899613 -51.301502 -6.5927973 
11.190368 -49.990253 -7.2263417 
12.049915 -49.793068 -7.4321585 
12.982125 -49.51247 -7.5852222 
14.545073 -48.69999 -7.287608 
17.92099 -46.864647 -7.336097 
-11.510669 -52.34017 3.279462 
73.65306 47.701706 27.057402 
-10.636292 -52.521393 1.8872344 
-20.711618 -51.681362 16.800055 
-32.32187 -53.962177 21.956617 
27.863396 53.761795 41.15026 
-22.344162 -52.05271 18.94105 
22.051018 53.941994 43.294323 
17.532713 53.522747 45.368862 
24.345789 54.179325 42.335373 
-29.370821 -50.99723 34.457653 
23.652302 53.77114 42.819515 
-40.735214 -52.187206 41.86156 
-45.13179 -51.502262 53.723656 
-46.615887 -51.427982 57.130444 
-31.977749 -51.934208 40.718166 
-34.071915 -51.994926 43.992695 
-34.7063 -51.52359 46.01262 
-33.45801 -51.45311 43.737167 
-35.343075 -51.75161 46.51744 
-35.408592 -51.196934 48.05832 
-31.326597 -52.012566 39.023006 
-36.737095 -51.32743 50.70384 
-38.373543 -51.489155 52.56955 
-38.510326 -51.255386 53.540283 
-37.67899 -51.33121 52.041462 
-34.013165 -23.632061 133.30843 
-33.883427 -24.565487 133.18968 
30.862978 58.116005 30.9865 
21.81654 58.481167 34.17835 
19.906328 58.461906 35.28143 
23.755344 58.27001 33.747887 
52.351124 49.62709 34.742573 
-47.341354 -51.443443 59.645916 
-41.193504 -50.82858 60.910923 
-48.72796 -51.35853 62.892624 
-43.367245 -51.103767 65.05345 
41.35213 52.440132 37.269463 
-46.14138 -50.80087 75.459564 
37.14239 53.294716 38.322727 
-51.185577 -51.993385 77.97515 
-51.80339 -51.005493 82.10535 
-51.400406 -50.590424 85.44547 
-51.04477 -50.90634 84.73444 
-51.03379 -50.755318 86.14442 
-46.83586 -50.576435 83.90969 
-50.22563 -51.252663 88.21476 
-45.46427 -48.26178 88.250404 
-50.073788 -51.210213 89.83227 
-49.65084 -51.317856 90.452515 
-48.84194 -51.052547 92.0149 
-48.19059 -50.441673 93.676445 
-47.97187 -49.979294 95.083626 
-43.68613 -48.163708 93.64505 
-42.830063 -48.360603 95.30878 
-47.21394 -49.34961 96.45737 
-43.173935 -49.15644 105.4245 
-46.998245 -48.91995 97.99992 
-46.648354 -48.729237 98.932724 
-46.330643 -48.594074 99.81817 
-44.20285 -48.807674 104.08425 
-42.173397 -49.291622 107.1249 
81.49646 -13.407148 -13.50286 
-40.510223 -48.286095 111.3367 
-40.892075 -49.31701 99.01382 
-39.494293 -50.095837 102.40399 
-37.505486 -49.73488 104.574265 
-36.351994 -48.589684 107.40869 
-39.950317 -48.166203 111.8345 
-35.43885 -46.12077 111.989105 
-34.394867 -43.643757 114.125404 
-33.985855 -42.64806 115.4852 
-38.66637 -45.178204 116.7193 
-39.40765 -44.637318 118.381676 
-34.09431 -42.414997 117.36143 
-33.55178 -41.801502 118.07723 
-33.44113 -41.715313 119.12915 
-32.538055 -40.748974 130.41791 
-36.641476 7.446357 120.35394 
-41.44925 -38.40061 119.49993 
-25.820396 38.00847 89.86574 
-32.7633 -38.51339 132.6948 
-32.706726 -37.08251 132.59921 
-31.0721 -3.3524876 133.56526 
77.23501 40.04489 15.4869175 
77.89467 38.710968 14.145923 
-40.96776 -43.86862 120.36737 
15.488793 58.08863 38.714005 
50.823723 56.208378 28.51961 
-4.7049804 54.217358 51.452427 
-3.4713042 50.143867 57.249348 
-10.711566 52.67925 56.72691 
1.953509 55.937366 46.70848 
12.192244 53.510883 47.95202 
14.03737 53.316277 47.170273 
15.864452 53.638344 46.142628 
6.3756266 52.878387 51.21925 
5.007667 52.22085 52.255863 
2.263991 51.66578 53.822968 
1.1587259 50.61928 54.41699 
0.5089389 51.071377 54.871243 
-1.8114419 50.707188 56.306534 
0.59864324 51.920624 54.501564 
11.85187 57.290665 40.634743 
10.88745 57.479668 40.68241 
8.845831 57.259285 42.11319 
13.819486 58.039562 39.233604 
-25.838915 37.46831 89.071236 
-27.297249 43.749268 76.637375 
-27.85203 43.51378 77.339386 
-26.927076 44.465214 75.34765 
-21.59438 42.51106 73.6445 
79.60989 35.4127 10.827062 
-23.864439 40.690117 76.86236 
-23.778538 41.548542 76.58802 
-25.44534 41.444893 78.826546 
-26.147205 39.679176 81.72418 
78.50702 37.39937 12.766538 
-29.258022 42.44065 81.37261 
-29.575663 41.974613 83.50721 
-29.953749 41.64036 85.185425 
-26.376137 38.32206 85.671745 
-26.209364 38.204662 87.30824 
-29.476091 41.053463 87.9246 
-29.103956 40.774635 88.80204 
-25.30085 37.708492 91.26216 
-23.99122 37.613594 93.96863 
-12.513191 47.442303 64.20671 
-16.865515 45.58626 68.046585 
-19.275812 44.13727 70.497925 
-21.387192 41.79964 73.20897 
82.3893 28.42777 2.8304029 
3.817825 -51.621838 -9.572945 
74.49278 21.352142 6.575682 
74.04192 19.960756 5.3717837 
75.553925 19.11128 5.018906 
-27.220638 15.698115 111.39659 
-27.065886 16.755453 110.44996 
-27.90702 9.922991 116.152596 
-27.56766 12.327445 113.982376 
-27.430298 15.491369 112.18555 
55.495758 48.781075 34.39888 
-23.837894 32.41733 100.23304 
-28.681318 30.87537 103.95598 
-24.681519 29.515032 102.15624 
-24.287054 30.986353 101.28733 
-24.809319 30.911495 102.0169 
-26.611109 21.194244 107.90818 
72.32175 29.842772 14.908397 
-30.598402 18.975166 113.33494 
-27.913218 6.746815 118.54704 
-27.99745 5.19578 121.78875 
-31.725668 13.2883625 118.594154 
-33.171017 11.859232 119.91356 
-32.837467 12.518465 119.46482 
-33.467926 10.1904 121.44008 
79.84311 -15.962583 -11.028799 
-28.428753 1.797688 127.39382 
80.30175 -16.475239 -13.263851 
-30.162922 -0.6033504 132.14001 
-24.79528 37.622208 97.60443 
17.189121 -46.68979 -10.544034 
21.402946 -44.600285 -10.822167 
23.049555 -43.87192 -10.877696 
27.924746 -42.221306 -10.657143 
31.699171 -40.189262 -10.622908 
19.93481 -45.86995 -7.261164 
22.065022 -45.13766 -7.2516637 
26.622644 -43.087177 -6.947582 
30.715128 -40.68374 -7.2105036 
32.496807 -39.16127 -6.476489 
-32.75931 11.218447 120.58925 
-35.037437 9.464207 121.16259 
-36.15482 8.543646 121.28895 
38.656174 -37.310932 -11.741949 
40.728874 -35.69965 -11.832748 
39.952393 -36.351387 -11.752856 
41.25391 -35.151146 -12.009607 
42.65335 -34.207897 -11.981109 
47.304565 -31.545656 -11.666512 
48.809242 -30.233688 -12.002383 
72.7058 26.098726 11.204602 
52.36467 -27.709396 -11.622664 
-7.2117376 49.664444 59.521317 
36.699116 -38.076546 -6.727659 
38.77203 -37.325245 -6.9253764 
40.713573 -36.265232 -7.036298 
-26.045898 37.861935 88.18131 
45.515533 -32.624527 -7.150685 
-22.044899 48.22262 69.6297 
50.270382 -28.163584 -8.273305 
52.47083 -26.718643 -8.394021 
53.283398 -26.227266 -8.222253 
54.190224 -26.239525 -8.8114195 
82.98297 -9.650667 -12.975067 
57.8818 -25.189297 -8.997495 
59.62983 -24.836382 -12.337193 
63.02003 -23.715467 -13.185671 
61.8474 -24.067728 -8.989132 
64.74351 -23.71617 -9.755673 
64.697136 -23.391209 -13.171173 
71.11331 -21.695614 -13.452033 
74.453926 -20.69284 -13.656649 
71.47487 -21.687384 -10.455029 
75.98463 -20.489647 -12.803602 
73.81838 23.927492 9.016848 
79.52729 -16.637173 -13.925976 
81.909225 -11.829564 -13.7196045 
78.77161 -18.140665 -13.794155 
78.764305 -18.878086 -11.972855 
77.09194 -19.547232 -11.199367 
80.80163 -15.712329 -13.111505 
81.277885 -14.259169 -13.219818 
82.655716 -10.1123085 -13.731302 
83.00803 -9.397671 -13.636975 
83.42774 -7.9853745 -13.484709 
83.87913 -5.9521937 -13.467508 
84.15703 -3.2831435 -13.678016 
80.21634 -2.616525 -7.4821773 
-42.22783 -32.689518 120.06199 
-42.1514 -34.286682 119.88054 
77.80266 14.523836 2.558362 
77.9807 13.630031 2.0124116 
78.39249 12.079778 0.8712959 
83.97543 22.4262 -2.8217869 
83.918686 22.846392 -3.5378456 
-46.553688 -50.189198 80.197395 
84.031235 -1.3192351 -14.042545 
85.55003 7.246158 -13.818657 
84.64506 0.13195398 -13.240686 
85.656105 5.9076858 -13.262815 
-26.200739 23.397629 106.12162 
46.65073 51.217186 36.00602 
50.10252 50.54282 35.201756 
85.520454 8.76811 -13.714814 
85.3209 9.68849 -13.830483 
85.87593 10.808893 -12.316187 
79.71353 7.3378663 -1.9699646 
80.49486 6.0499573 -2.8897371 
80.006325 8.042637 -1.6310551 
79.2254 9.605354 -0.6801087 
21.072351 54.02118 43.58978 
-20.67593 49.137566 67.714775 
-29.738981 41.281807 86.998215 
13.557439 -49.021637 -7.089492 
16.389454 -47.834362 -7.4283795 
-25.537136 -51.422947 25.564526 
30.771164 53.211273 40.14194 
-45.981995 -51.542606 56.563046 
-32.557735 -51.379997 42.247295 
43.03293 52.73226 36.763103 
44.712097 52.119144 36.46392 
-49.69371 -52.079216 69.693756 
38.053215 52.83467 38.054348 
-46.522015 -50.34509 79.25024 
-41.05571 -42.977455 120.220634 
-41.061077 -40.74744 119.73351 
-26.697056 43.98504 76.04591 
-42.00306 -13.572119 120.42985 
-28.387959 43.29215 78.08914 
-32.756023 -10.187772 133.55515 
-33.456856 -33.87928 132.98355 
-42.36477 -26.914928 119.78789 
-28.600128 40.39028 89.665955 
-25.074196 37.75032 92.00389 
-29.355103 42.730087 80.34345 
-12.113434 52.419754 57.690647 
-27.102571 18.236174 110.007645 
-30.272434 26.15363 107.763435 
-30.391125 23.822046 109.66316 
-32.38521 13.018669 119.02233 
-31.361523 16.225368 115.9403 
-28.866396 0.6277681 129.13628 
23.889696 -43.823265 -10.690305 
56.130054 -25.781174 -12.516434 
79.99375 -3.7076137 -7.8051214 
-43.546726 -51.52831 47.185482 
84.15385 0.8333942 -13.975782 
85.096725 17.252003 -8.374403 
79.93926 3.8605826 -4.1050053 
-24.150393 -55.280464 7.14884 
-26.645607 -54.61953 10.023992 
59.44323 47.845825 33.74275 
-5.8348765 -57.98512 -9.886577 
58.91712 48.60246 33.8174 
10.728848 -49.18733 -10.221628 
9.690504 -50.440605 -7.157114 
8.246835 -50.766865 -6.925937 
72.50189 48.432167 27.02123 
-10.08374 -52.494072 1.1782684 
65.26593 51.604733 26.959305 
33.439285 53.465294 39.342926 
-33.077827 -53.776463 24.620077 
28.81488 53.591213 40.830685 
29.808104 53.408783 40.499847 
18.028858 53.95149 44.931133 
-37.33558 -53.029922 33.03635 
-39.671967 -52.37975 39.06975 
-28.451363 -51.359077 31.583334 
-30.06837 -51.082058 36.73757 
-40.273136 -3.5842755 120.13174 
-44.62635 -51.54496 51.93703 
-27.148973 15.957873 110.65231 
-32.283833 -51.65644 41.56776 
-27.399195 13.815108 112.87627 
-36.321625 -51.25983 49.917843 
-40.129734 -51.232388 56.594704 
35.502598 53.73216 38.642372 
48.031662 56.685806 28.791294 
43.76774 57.307873 28.813824 
19.29028 58.244553 36.27285 
54.186947 49.49327 34.566288 
48.352173 50.96564 35.566135 
-28.967594 -51.46392 32.63087 
-47.095173 -51.457584 58.702965 
-47.748554 -51.587177 61.484665 
-48.748325 -51.854683 65.37232 
40.633247 52.77256 37.42903 
36.222927 53.179523 38.57638 
-51.653183 -50.89925 82.95586 
58.65211 54.002754 27.6799 
-29.29258 28.832987 105.471344 
-28.165922 31.377836 103.509476 
-29.4058 -0.18709987 130.8904 
-45.2448 -48.65946 101.06516 
-41.435852 -37.607513 119.09161 
-32.393917 -40.777634 120.47925 
-32.049725 -40.414623 121.31958 
-31.857922 -40.71917 125.94707 
-32.1423 -40.980152 126.79923 
-32.147682 12.367737 119.57923 
-41.1149 -39.126072 118.842834 
-27.934927 7.591461 117.82384 
-28.0106 9.200864 116.99281 
-50.40042 -52.067116 72.38445 
-33.909317 -32.333855 133.24846 
-33.56527 -27.93907 132.90245 
40.828224 57.5507 29.148685 
-33.420746 -15.813995 133.10713 
-19.009127 -51.558937 14.287543 
-31.110678 -54.148106 20.594442 
19.144133 -45.826233 -10.483519 
33.278828 -39.609455 -10.6891 
79.72136 5.8160233 -2.9454281 
79.27698 8.041388 -1.535337 
80.26974 -0.12047215 -6.3869667 
80.21012 0.73322165 -5.9276657 
79.595764 -10.106847 -9.217618 
83.24749 -8.82316 -13.17071 
82.292885 -11.492118 -13.013513 
82.640594 -10.557422 -12.993336 
79.67142 -14.609796 -10.4500675 
73.52458 23.190624 8.406887 
71.68631 -21.94596 -12.71669 
63.71722 -23.624048 -9.185986 
61.09978 -24.56115 -9.355146 
61.349533 -24.490997 -12.550721 
49.301826 -29.57912 -8.738804 
46.371487 -32.137028 -7.494512 
13.160956 53.40421 47.568558 
11.184581 53.68863 48.312252 
14.854564 53.68024 46.638275 
7.3170485 52.595222 50.783146 
41.92337 -34.75575 -11.921106 
36.23052 -38.597393 -7.245858 
221 218
218 217
217 206
206 530
530 205
205 170
170 535
535 169
169 503
503 168
168 167
167 502
502 166
166 165
165 164
164 9
9 381
381 7
7 8
8 5
5 379
379 3
3 4
4 377
377 378
378 2
2 1
1 0
0 419
419 48
48 706
706 49
49 50
50 708
708 51
51 738
738 506
506 726
726 727
727 755
755 446
446 449
449 447
447 73
73 448
448 728
728 72
72 171
171 505
505 524
524 192
192 521
521 522
522 191
191 190
190 523
523 186
186 187
187 189
189 188
188 178
178 510
510 177
177 172
172 507
507 173
173 509
509 684
684 223
223 224
224 222
222 225
225 227
227 226
226 228
228 660
660 607
607 203
203 204
204 202
202 201
201 199
199 198
198 200
200 528
528 675
675 526
526 527
527 677
677 683
683 536
536 537
537 211
211 538
538 661
661 541
541 542
542 681
681 214
214 277
277 578
578 252
252 253
253 259
259 740
740 561
561 244
244 739
739 686
686 687
687 263
263 567
567 689
689 570
570 688
688 748
748 572
572 571
571 589
589 573
573 274
274 590
590 273
273 272
272 591
591 271
271 265
265 496
496 266
266 264
264 718
718 159
159 158
158 676
676 680
680 637
637 154
154 638
638 153
153 152
152 743
743 497
497 749
749 138
138 674
674 673
673 504
504 143
143 137
137 142
142 491
491 141
141 139
139 490
490 140
140 133
133 132
132 486
486 481
481 120
120 119
119 118
118 479
479 112
112 474
474 111
111 478
478 117
117 116
116 742
742 113
113 477
477 476
476 475
475 473
473 100
100 470
470 99
99 469
469 468
468 98
98 467
467 466
466 97
97 464
464 462
462 460
460 461
461 737
737 459
459 93
93 92
92 91
91 458
458 88
88 752
752 87
87 670
670 82
82 734
734 81
81 453
453 733
733 451
451 732
732 432
432 666
666 431
431 365
365 719
719 64
64 694
694 63
63 430
430 715
715 714
714 56
56 55
55 710
710 54
54 422
422 758
758 10
10 384
384 14
14 15
15 13
13 12
12 11
11 699
699 383
383 382
382 698
698 380
380 6
6 396
396 393
393 23
23 395
395 394
394 387
387 386
386 19
19 388
388 17
17 390
390 18
18 391
391 701
701 392
392 22
22 29
29 402
402 30
30 31
31 403
403 32
32 404
404 33
33 550
550 34
34 405
405 35
35 36
36 406
406 37
37 703
703 38
38 407
407 408
408 579
579 759
759 580
580 278
278 581
581 691
691 279
279 582
582 280
280 281
281 282
282 583
583 283
283 760
760 291
291 284
284 292
292 294
294 295
295 592
592 296
296 594
594 593
593 595
595 781
781 596
596 297
297 298
298 597
597 598
598 300
300 301
301 600
600 302
302 692
692 312
312 315
315 614
614 774
774 615
615 316
316 618
618 319
319 320
320 619
619 771
771 322
322 323
323 620
620 324
324 622
622 326
326 331
331 329
329 626
626 332
332 335
335 624
624 576
576 629
629 337
337 630
630 480
480 625
625 767
767 330
330 768
768 631
631 612
612 632
632 766
766 633
633 339
339 634
634 340
340 635
635 645
645 647
647 695
695 362
362 359
359 363
363 648
648 360
360 364
364 646
646 361
361 652
652 653
653 367
367 366
366 368
368 654
654 369
369 370
370 696
696 353
353 352
352 351
351 350
350 349
349 348
348 347
347 643
643 642
642 346
346 358
358 357
357 356
356 355
355 242
242 241
241 240
240 239
239 235
235 549
549 234
234 233
233 232
232 221
456 672
672 644
644 94
94 463
463 95
95 96
96 465
465 101
101 102
102 103
103 104
104 105
105 106
106 471
471 107
107 472
472 108
108 109
109 110
110 114
114 115
115 482
482 121
121 122
122 123
123 124
124 483
483 125
125 126
126 484
484 128
128 127
127 129
129 485
485 130
130 131
131 134
134 487
487 488
488 135
135 489
489 136
136 492
492 144
144 493
493 494
494 744
744 745
745 746
746 747
747 145
145 146
146 495
495 147
147 148
148 149
149 150
150 151
151 499
499 155
155 157
157 500
500 156
156 679
679 753
753 754
754 445
445 444
444 756
756 678
678 160
160 161
161 501
501 162
162 163
163 275
275 577
577 741
741 690
690 575
575 276
276 269
269 270
270 569
569 268
268 267
267 568
568 750
750 751
751 556
556 557
557 243
243 722
722 558
558 554
554 720
720 555
555 685
685 565
565 261
261 649
649 247
247 248
248 245
245 246
246 562
562 260
260 564
564 563
563 250
250 251
251 560
560 257
257 258
258 254
254 255
255 256
256 196
196 195
195 216
216 544
544 194
194 215
215 193
193 682
682 543
543 498
498 525
525 605
605 540
540 539
539 213
213 212
212 210
210 534
534 207
207 209
209 533
533 208
208 531
531 532
532 197
197 548
548 529
529 231
231 547
547 230
230 546
546 220
220 219
219 545
545 601
601 229
229 176
176 174
174 508
508 175
175 519
519 180
180 181
181 520
520 518
518 183
183 517
517 182
182 516
516 179
179 515
515 514
514 780
780 185
185 184
184 778
778 511
511 777
777 512
512 779
779 513
513 426
426 713
713 60
60 59
59 659
659 425
425 58
58 429
429 427
427 61
61 423
423 711
711 712
712 665
665 709
709 725
725 736
736 457
457 671
671 90
90 86
86 735
735 455
455 85
85 668
668 669
669 650
650 74
74 730
730 651
651 77
77 450
450 75
75 729
729 76
76 559
559 385
385 702
702 700
700 389
389 20
20 21
21 409
409 401
401 28
28 53
53 52
52 249
249 566
566 262
262 599
599 299
299 623
623 770
770 328
328 236
236 551
551 341
341 237
237 552
552 238
238 553
553 343
343 344
344 639
639 640
640 641
641 345
345 376
376 658
658 373
373 762
762 657
657 655
655 375
375 656
656 761
761 374
374 697
697 372
372 371
371 764
764 763
763 342
342 636
636 693
693 765
765 769
769 574
574 338
338 334
334 336
336 333
333 627
627 628
628 327
327 621
621 321
321 617
617 772
772 318
318 616
616 773
773 325
325 317
317 314
314 613
613 313
313 611
611 610
610 609
609 311
311 310
310 608
608 309
309 775
775 308
308 776
776 606
606 307
307 306
306 305
305 604
604 304
304 603
603 303
303 602
602 782
782 293
293 588
588 290
290 587
587 289
289 586
586 288
288 287
287 286
286 585
585 285
285 584
584 46
46 417
417 663
663 45
45 416
416 662
662 415
415 414
414 413
413 44
44 704
704 705
705 410
410 43
43 412
412 41
41 42
42 411
411 40
40 39
39 27
27 399
399 400
400 24
24 397
397 25
25 398
398 26
26 707
707 420
420 418
418 47
47 757
757 421
421 16
16 424
424 354
354 664
664 57
57 716
716 731
731 428
428 62
62 717
717 439
439 66
66 433
433 721
721 667
667 436
436 434
434 67
67 435
435 437
437 68
68 69
69 438
438 70
70 723
723 440
440 71
71 443
443 441
441 442
442 724
724 65
65 78
78 452
452 79
79 80
80 454
454 83
83 84
84 89
89 456
