ply
format ascii 1.0
element vertex 805
property float x
property float y
property float z
element face 1355
property list uchar int vertex_indices
end_header
-31.984833 4.0972967 127.53759
-42.817593 -1.9250515 130.85654
-42.883797 -5.2212753 132.85999
-43.343304 -4.629772 132.22687
-43.141693 -3.2185946 131.68161
-42.314545 -1.2076929 130.95851
-42.549534 -2.8090172 132.07225
-41.380962 -3.406973 133.04662
-42.18983 -1.9243373 131.70224
-40.9953 -0.3768215 131.16808
-40.799232 -2.4853082 132.73686
-42.155514 -4.2856603 133.06888
-40.71105 -4.809567 133.75136
-39.66266 0.34173965 130.90213
-37.510555 0.3318547 131.2967
-38.10393 -3.680468 133.88864
-38.828743 -2.3535442 133.07278
-36.57895 -1.6397544 133.16463
-35.28211 -0.87385845 132.98888
-36.203033 -2.1168454 133.58849
-34.04293 -1.39483 133.59827
-34.595802 -2.2055013 133.92989
-33.105656 -1.437477 133.68307
-32.119545 -1.4648485 133.60587
-31.155256 -1.4533466 133.31223
-32.691727 -2.2435844 133.9821
-30.022696 -2.3522234 132.66216
-29.881416 -1.4365963 132.34793
-30.731426 -2.4254482 133.34172
-30.400696 -1.7461035 132.99594
-26.162107 36.96115 88.2019
-25.213488 36.901745 90.96186
-24.879616 37.067894 91.804276
-24.143492 37.042854 93.30643
-23.153578 36.802982 95.181046
-22.909597 36.36951 96.04445
-22.973022 37.259563 96.02779
-26.788595 39.367237 87.82728
-30.281914 40.99433 87.63841
-29.035685 41.24659 86.40161
-29.044565 41.120514 87.260475
-27.832884 40.47364 86.762024
-27.22817 39.825798 88.43887
-26.235235 37.425613 87.30275
-26.330189 38.675926 88.08428
-29.974524 40.777637 88.62767
-28.372116 40.57717 88.710236
-29.594648 40.502865 89.54431
-27.080517 39.48501 90.44111
-27.729435 39.774704 90.86824
-26.168028 38.691963 91.65041
-29.091696 39.75972 91.553314
-28.165762 39.671837 91.63609
-25.484667 37.620472 90.52131
-25.887318 38.387527 90.798805
-28.111526 39.0407 93.48727
-28.80887 38.684696 94.27505
-26.779718 39.04705 92.18558
-26.479856 38.82244 93.17713
-26.270658 38.72819 94.04009
-25.515535 38.493248 93.445114
-24.701992 38.299732 94.081184
-26.884785 38.68698 94.729485
-24.786358 38.447685 94.997086
-26.354277 38.50256 95.52106
-25.206667 38.14036 92.63996
-24.64258 37.42941 92.59507
-24.627623 37.920006 93.31026
-23.554598 38.042328 95.18422
-24.906572 38.35766 95.95504
-24.185741 38.115986 96.44511
-23.478062 37.459877 94.645905
-23.173195 37.540226 95.3652
-23.50131 37.92102 95.93719
-31.990278 16.650972 115.57425
-27.34793 13.902005 112.10528
-27.213964 16.35202 109.90866
-27.051071 17.247257 109.86257
-27.211767 16.634441 111.138794
-27.185122 17.481678 110.68364
-27.40045 14.612116 112.53311
-27.801462 9.820837 115.237335
-27.87895 8.942934 116.03589
-28.24305 10.064188 116.9882
-27.617123 11.466451 113.84578
-27.710474 11.737958 114.758286
-27.55388 13.264086 113.56382
-28.188854 13.465546 114.89612
-28.55532 10.824323 117.03456
-29.01924 14.858834 115.1798
-28.561275 17.588081 112.74358
-29.279451 17.941074 113.24139
-26.939007 21.059355 108.71406
-27.964466 17.05441 112.29861
-29.445591 13.551387 116.60896
-30.27706 17.153982 114.645515
-26.389492 22.449995 105.6814
-26.12009 23.442888 105.2021
-26.255678 25.127684 105.9334
-27.086191 26.829462 105.96716
-28.16978 28.516256 105.44393
-28.143559 27.730696 106.00721
-25.727657 27.52485 104.253685
-25.599817 25.684647 103.67564
-25.483374 26.647676 104.01619
-25.3491 26.572222 103.286766
-25.305967 27.003456 102.536
-25.273203 27.499853 103.37726
-25.87471 24.323717 104.7623
-25.680813 25.119 104.39732
-26.018942 24.262276 105.64113
-25.840807 25.098112 105.171425
-25.672 25.878 104.580505
-26.078503 25.928019 105.373795
-25.868786 26.692698 104.789116
-23.674107 32.337715 99.31441
-24.615244 29.161669 101.45442
-24.212055 30.446285 100.68111
-23.999693 31.153673 100.549255
-24.071918 31.763292 100.815
-24.600313 31.708052 101.542175
-23.833044 31.706726 99.960434
-25.981188 37.04508 98.394
-28.246801 34.452766 101.05468
-27.61347 33.873196 101.58296
-25.898218 34.255623 100.88684
-26.564844 35.318523 100.27911
-27.445084 36.28651 99.36662
-25.905766 36.372074 99.15459
-28.05855 35.205036 100.446335
-27.30575 35.592396 100.13133
-22.932535 35.160294 97.32622
-23.2751 34.025295 98.66178
-23.072802 34.932087 98.327194
-24.27414 36.17977 98.92254
-24.178783 37.243977 97.96048
-22.801062 36.0326 97.00483
-22.965666 36.908913 96.84177
-23.563293 34.76036 99.19266
-23.612015 36.535217 98.2824
-23.0584 35.81271 97.94928
-23.058537 36.54974 97.5977
-23.440826 37.24067 97.559364
-24.258543 34.622795 99.878044
-24.220703 35.42462 99.40385
-24.039083 33.184635 100.376854
-24.73931 33.148064 101.02014
-23.61774 33.020596 99.71273
-23.695496 33.851597 99.63482
-28.485548 32.173386 102.95503
-25.519886 30.861666 102.67087
-27.225927 30.929598 103.54347
-27.551762 31.952341 102.9844
-29.375246 29.677883 104.82554
-28.020325 29.855911 104.511215
-26.073204 29.186298 103.918785
-25.028101 27.870165 102.42037
-24.80294 28.731916 102.26579
-24.462488 30.110804 101.58272
-25.122005 28.444439 103.07359
-24.99851 30.155296 102.483055
-30.876 22.601027 110.652695
-30.994476 24.84367 108.736336
-31.32146 19.563099 113.00343
-26.924686 18.497433 108.97739
-26.46265 21.269777 107.13595
-26.492714 21.968998 107.38022
-26.67835 20.320044 108.28793
-27.386747 22.720848 108.53879
-28.091246 22.375322 109.44658
-26.340416 22.643963 106.70789
-28.813564 25.940243 107.63319
-29.486296 26.275032 107.62182
-28.093962 25.557953 107.489334
-30.323555 19.820215 112.57534
-30.669592 21.748861 111.31221
-40.624527 2.8120446 127.52378
-41.692245 1.0573922 128.91884
-42.39613 -0.70039725 130.17125
-42.005085 0.031247843 129.95448
-41.037857 1.4276292 129.38652
-40.215466 1.6388612 129.6437
-40.899944 2.3024337 128.10397
-41.81155 -0.4558143 130.79007
-37.353027 7.4736867 121.934906
-37.91736 6.992425 123.05366
-37.71075 6.792776 123.829475
-36.822365 7.855181 122.61239
-35.608776 7.47265 124.10104
-39.661438 4.457409 125.51973
-38.85063 5.6109495 124.56562
-37.77305 5.768568 125.38418
-31.482967 8.242684 122.52171
-32.137264 9.662122 121.710144
-34.44959 8.270974 123.35906
-35.401627 6.4842796 125.567
-33.274925 7.718992 124.02388
-34.57995 6.591927 125.52149
-30.698662 6.5549355 123.77144
-33.11934 8.974756 122.610794
-28.142347 8.522934 117.97508
-27.869194 6.05695 119.40515
-27.994118 6.187954 120.16676
-28.522867 8.381851 118.992676
-29.045113 9.044791 119.213135
-28.934229 7.5984397 120.492744
-27.748718 3.8985658 122.97021
-27.77526 2.6742547 124.74639
-28.099915 3.5941582 124.72339
-28.972603 5.9307356 122.72743
-28.404598 6.046817 121.534775
-27.759686 4.3105536 121.999054
-28.037657 4.780061 122.725
-30.241657 8.775922 120.89206
-29.842535 7.1618056 122.13541
-28.831501 4.9817543 123.9853
-29.892027 5.0586123 125.03802
-36.726936 8.078688 121.7556
-35.656033 8.985905 120.68892
-34.65918 9.977693 120.67364
-30.498934 10.437508 119.840355
-33.471752 12.393342 119.2165
-33.61621 11.246214 120.2351
-32.543797 13.68696 118.387146
-31.622458 12.53144 119.183975
-30.460554 12.002967 118.63205
-31.102762 14.232223 117.515854
-33.2984 10.774036 120.91348
-32.37083 11.7890835 120.09972
-31.641142 11.750218 119.843056
-35.4713 8.927001 121.749245
-34.284206 9.879496 121.390884
-33.744526 9.510901 122.077995
-35.037647 8.66134 122.62824
-31.647345 9.994436 121.15618
-29.353376 10.537467 118.40501
-40.285133 3.3325255 126.95974
-39.761932 3.3099332 127.766174
-39.27042 3.0364645 128.50873
-37.799633 3.8181317 128.16666
-36.86782 3.7868145 128.41243
-35.358463 4.2838793 128.03658
-36.837456 1.848149 130.17427
-34.760574 3.02569 129.26733
-33.93514 2.9635906 129.31169
-31.922335 2.4143763 129.59692
-31.128193 3.598743 127.73848
-31.011179 1.2468599 130.70345
-39.440968 4.2682366 126.36348
-37.96868 4.379625 127.397415
-36.65061 5.676942 126.229385
-36.200943 5.3245287 126.8732
-34.383743 5.40125 126.81119
-32.66349 5.334931 126.40113
-35.300045 0.49774706 131.74765
-34.946083 1.8019892 130.56537
-33.038006 0.98447573 131.72871
-33.777718 0.02302973 132.59575
-32.661636 1.419651 131.16309
-31.531631 0.12114942 132.3055
-33.16432 1.9284898 130.57034
-33.053497 -0.16497777 132.83292
-31.751106 -0.6391973 133.04907
-30.472368 -1.0956962 132.78671
-28.272606 2.3648648 126.510735
-29.540243 2.5285244 127.97863
-28.054981 1.4869735 126.655495
-28.6562 1.2399834 128.26443
-28.439438 0.31849575 128.26904
-29.498936 -0.9673027 131.50241
-29.95689 -0.050276563 131.41289
-25.060606 38.022095 96.89133
-24.149668 37.75877 97.239
-23.407621 37.681156 96.74835
-32.66341 3.8101048 128.11821
-26.73882 22.725376 107.65065
-26.912626 24.304808 107.18017
-27.530628 19.117811 110.55268
-29.514877 25.593166 108.138306
-25.820396 38.00847 89.86574
-42.94568 -2.5485756 131.33604
-42.98002 -3.684631 132.21619
-41.73926 -2.5849872 132.44885
-41.207413 -1.7821509 132.14008
-40.623127 -1.0592902 131.78871
-41.55366 -1.1051434 131.50533
-42.09535 -5.2005234 133.34474
-41.41917 -4.394429 133.43378
-42.247738 -3.439449 132.65158
-40.629704 -3.8926058 133.51259
-39.649883 -1.0247865 131.95045
-39.021465 -4.033273 133.86246
-37.0827 -3.4105372 133.96124
-38.60457 -0.9309443 132.06845
-39.74836 -2.5330758 133.00377
-37.69744 -1.1398247 132.42404
-38.335907 -0.047623962 131.43573
-39.755405 -3.470591 133.51094
-37.93806 -2.6741524 133.44911
-37.452824 -1.849567 133.0438
-36.874798 -0.59970737 132.2337
-36.061474 -0.08860443 132.05505
-35.754105 -1.4772593 133.30501
-34.899048 -1.4221152 133.47166
-35.461708 -2.1713815 133.78232
-33.668198 -2.2420125 134.01749
-25.838915 37.46831 89.071236
-25.587692 36.93863 90.0091
-24.494835 36.566406 92.50931
-23.629824 36.624973 94.21996
-26.893269 39.5344 86.82864
-26.49192 38.923977 87.11877
-28.304348 40.945778 85.83665
-27.32778 39.967472 87.43998
-26.209364 38.204662 87.30824
-29.476091 41.053463 87.9246
-28.671661 40.847755 87.95203
-29.103956 40.774635 88.80204
-27.910324 40.412014 87.91413
-27.090595 39.61588 89.465965
-29.269032 40.179413 90.47908
-27.768444 39.98989 90.01944
-26.106518 38.396145 89.02159
-26.567913 39.040607 91.047005
-25.30085 37.708492 91.26216
-29.125359 38.99342 93.3479
-28.618116 39.400314 92.52488
-27.302135 39.42737 91.46979
-27.711023 39.324432 92.421394
-27.194649 38.877712 93.87878
-27.854643 38.697956 94.66669
-25.463783 38.572025 94.414345
-26.106455 38.643497 94.81088
-27.188488 38.48572 95.52184
-25.54109 38.51869 95.346214
-25.577032 38.270035 91.77569
-24.048105 38.153946 94.665825
-24.154427 38.289318 95.552734
-23.99122 37.613594 93.96863
-31.68254 18.089651 114.31052
-27.220638 15.698115 111.39659
-27.065886 16.755453 110.44996
-27.90702 9.922991 116.152596
-27.706112 10.6812525 114.52714
-27.56766 12.327445 113.982376
-27.791153 12.903442 114.43733
-27.804173 10.779663 115.42473
-28.064117 11.64224 115.678764
-28.518927 12.429778 116.04711
-27.654629 14.320086 113.35164
-28.454147 14.282649 114.794785
-28.07833 15.0469055 113.69163
-27.430298 15.491369 112.18555
-27.498144 16.420578 111.87316
-27.559328 17.337439 111.51893
-27.816954 16.137335 112.594406
-28.565903 15.9766245 113.82974
-29.648857 14.941625 115.8424
-29.225977 14.185755 115.91801
-29.06358 15.739229 114.60663
-28.884888 17.014755 113.50918
-29.572067 17.250124 114.01431
-30.13653 18.066435 113.81923
-29.693434 16.459421 114.720535
-30.159504 15.559689 115.83888
-26.437557 26.740961 105.436035
-26.680157 25.97258 106.05415
-27.821995 36.8046 98.50976
-26.767149 34.080605 101.27018
-26.799583 36.68242 98.86462
-27.936874 35.82693 99.83556
-27.318567 34.76134 100.85106
-23.160698 34.259624 97.67647
-23.470665 33.126366 98.91519
-25.139458 36.617126 98.80322
-25.052135 37.177612 98.197
-24.409212 36.786892 98.49124
-23.52841 35.647423 98.76815
-23.837894 32.41733 100.23304
-24.334778 32.46267 100.98718
-25.034359 32.404354 101.60149
-25.280828 33.742638 100.96153
-24.999153 35.210175 99.89978
-25.848154 32.33538 102.091
-26.273489 32.924046 101.914734
-26.804674 31.566267 102.97644
-26.300583 30.830492 103.18422
-28.546915 29.344646 104.986755
-27.327108 30.001986 104.17252
-27.661861 29.20282 104.799255
-26.556307 30.053394 103.755875
-28.681318 30.87537 103.95598
-25.701803 29.977585 103.23185
-25.624195 28.331469 103.833496
-25.079346 29.350355 102.83668
-24.681519 29.515032 102.15624
-24.287054 30.986353 101.28733
-24.809319 30.911495 102.0169
-28.838432 32.900665 102.308815
-27.81381 32.918102 102.32518
-26.952887 33.291294 101.88584
-31.04226 23.354864 110.0077
-31.347643 21.179193 111.75562
-30.9144 18.37687 113.963875
-26.770775 19.406256 108.65227
-26.428186 21.790709 106.47763
-26.604158 20.51833 107.40899
-26.611109 21.194244 107.90818
-27.028458 19.19338 109.59492
-28.708502 24.139297 108.78793
-26.533873 23.486279 107.00047
-28.009043 24.015104 108.41772
-30.035866 27.637064 106.53647
-28.526575 27.226368 106.55256
-27.440557 25.042122 107.31885
-28.22888 26.39361 106.99277
-29.560532 23.79935 109.4463
-30.241905 25.289207 108.49388
-30.598402 18.975166 113.33494
-29.737879 18.842434 112.945625
-29.866747 21.401995 111.29841
-30.499853 20.83022 111.946266
-28.87666 20.163765 111.4703
-29.082087 21.055826 111.064316
-28.18542 19.693184 111.10225
-27.800224 19.98768 110.514084
-30.199986 23.147884 110.13257
-29.268074 27.471182 106.621086
-41.58018 0.72135484 129.68417
-41.241894 1.7640519 128.6672
-40.54727 2.0997891 128.92664
-41.309746 0.24784112 130.47044
-40.785854 0.9381366 130.08435
-37.172447 7.373208 123.305984
-36.29033 7.6909904 123.408485
-36.924953 7.038617 124.04426
-38.183266 5.921794 124.83962
-38.555977 5.399251 125.32343
-38.426258 6.43339 123.42881
-38.29294 6.2308073 124.204414
-36.639244 6.6232915 124.815414
-34.301113 7.1890535 124.77422
-34.811577 7.685302 124.06941
-35.857548 6.8708715 124.87131
-33.981743 7.785433 124.03507
-33.77414 6.6020465 125.39402
-31.830849 7.6725397 123.393555
-32.64126 7.8172235 123.68045
-33.424118 8.317864 123.34254
-32.79549 7.2038345 124.41699
-31.075178 7.3458276 123.164795
-27.804369 4.7004004 121.05914
-29.03518 8.350865 119.86229
-27.913218 6.746815 118.54704
-28.055004 6.931694 119.4533
-28.476902 7.68081 119.64364
-28.390797 6.976883 120.27188
-27.766691 3.3471453 123.87502
-27.9586 5.603489 120.930405
-28.263472 6.353375 120.81654
-27.99745 5.19578 121.78875
-29.568195 8.204035 120.68467
-29.674263 9.060834 120.01037
-29.386662 7.3838596 121.33058
-29.071688 6.5204244 121.97644
-29.575336 6.4326797 122.77312
-30.304718 6.915959 122.94281
-30.624388 7.701236 122.32509
-30.085388 7.961052 121.51667
-30.822805 8.508441 121.70146
-29.244053 5.7011237 123.41687
-30.266357 5.8212266 124.35305
-29.22173 4.8443584 124.66483
-28.62747 4.305956 124.67885
-28.157108 4.325939 123.769455
-28.559069 5.208301 123.19927
-31.725668 13.2883625 118.594154
-31.7928 14.041898 117.99391
-33.171017 11.859232 119.91356
-31.03308 11.87809 119.26303
-30.482155 11.210194 119.23798
-31.0893 11.076343 119.91842
-32.837467 12.518465 119.46482
-32.61403 15.111426 116.83401
-34.078125 10.542853 120.64346
-34.631863 9.2549925 122.00478
-35.999172 8.334384 122.43717
-35.39222 8.068762 123.3246
-34.06723 8.8586035 122.71323
-30.936605 9.36401 121.0829
-33.467926 10.1904 121.44008
-32.529797 10.400483 121.2347
-31.839 10.940447 120.5593
-32.865612 9.669411 121.9489
-27.909851 8.318601 117.035324
-28.390278 9.446527 117.7691
-28.466005 11.552391 116.467636
-28.934011 11.49975 117.193115
-29.014004 10.884744 117.67162
-29.42621 11.418274 117.88771
-28.848955 12.109315 116.7419
-29.131004 12.782724 116.70139
-28.446404 13.119049 115.53311
-28.732697 10.22747 117.74495
-29.471668 9.78146 119.16847
-29.986673 9.860168 119.72339
-29.942179 10.535868 119.136116
-30.456293 14.33751 117.00588
-31.082132 13.460063 118.08636
-30.46301 13.5876 117.54733
-40.14419 2.7205272 128.36032
-39.7164 2.3286817 129.1186
-38.852768 2.5076978 129.21584
-37.97265 2.6405733 129.2907
-37.59115 2.1209886 129.81784
-36.530663 3.162909 129.0466
-35.04555 3.6625965 128.63257
-36.206684 2.4876604 129.69421
-40.043034 3.9704313 125.90454
-40.01026 3.782502 126.51445
-39.26506 5.0074344 125.05792
-38.86492 4.8182263 125.99001
-38.152607 5.2537327 125.90848
-39.488213 3.8351326 127.13802
-38.761158 4.3354588 126.92647
-37.446896 5.4398336 126.12673
-37.168804 5.008264 126.929756
-36.522133 4.8106465 127.40963
-38.779213 3.743426 127.83139
-37.134583 4.375097 127.733864
-36.258305 4.316176 127.97753
-35.77532 5.900457 126.24775
-35.283955 5.4233904 126.87224
-34.89944 5.9970336 126.22587
-31.88684 5.4376674 125.93697
-32.44719 6.0095706 125.55983
-32.01729 4.767593 126.76602
-32.992268 6.605865 125.15047
-34.45009 4.2154045 128.03079
-33.194096 2.8779945 129.34222
-33.533913 4.0970793 128.01378
-31.627567 2.8371537 128.93248
-39.283325 0.9919912 130.45317
-38.610462 1.2652138 130.35359
-37.216667 1.0850815 130.74055
-35.2754 -0.24357602 132.44576
-36.09401 0.59044224 131.4205
-34.540283 1.1147642 131.34924
-34.53097 0.27929235 132.17711
-33.79991 0.73064864 131.91098
-33.589314 1.3719066 131.24744
-33.01697 0.43532452 132.28322
-32.207634 0.7506548 131.835
-31.297966 0.7250471 131.50774
-31.818806 1.3381239 131.00572
-35.85607 1.8444234 130.35637
-35.309216 2.435432 129.84192
-34.45014 2.4140363 129.95207
-33.60894 2.4082475 129.97198
-32.28972 1.9254118 130.40758
-31.466562 1.8449866 130.16281
-32.62423 -0.7232597 133.2406
-33.538094 -0.70831245 133.19751
-30.946218 -0.5368559 132.66902
-29.316963 3.7855365 126.16775
-29.94809 3.8972888 126.58311
-28.898848 2.5718443 127.24106
-27.864653 1.9592893 125.63115
-28.151176 2.935249 125.6236
-28.958464 1.9919283 127.989876
-28.428753 1.797688 127.39382
-30.98503 2.29408 129.3172
-30.291557 3.0780964 127.86133
-30.140928 1.7527719 129.43204
-28.237867 0.88613534 127.50027
-30.58421 4.365693 126.44395
-29.054579 -0.7572756 130.5586
-30.483097 0.64625937 131.09154
-30.713741 0.09076846 131.8925
-30.162922 -0.6033504 132.14001
-26.603931 38.223774 96.330696
-26.331772 37.537403 97.68897
-25.741018 38.297264 96.21499
-26.048752 37.95231 97.00397
-25.553112 37.590652 97.65696
-24.79528 37.622208 97.60443
-32.75931 11.218447 120.58925
-35.037437 9.464207 121.16259
-32.325333 15.914144 116.164986
-36.15482 8.543646 121.28895
-32.21929 8.993225 122.31152
-27.271727 39.069386 93.040085
-26.045898 37.861935 88.18131
-29.530413 1.0418268 129.71024
-33.226902 5.9727325 125.91745
-31.81977 3.417049 128.28435
-29.976255 13.742392 117.02881
-31.182587 5.5079136 125.45156
-29.25179 4.359732 125.35036
-32.236603 6.6562214 124.74003
-27.729162 20.607086 110.10485
-28.092327 17.9719 111.94406
-28.669727 19.344751 111.78344
-26.200739 23.397629 106.12162
-30.828524 15.646879 116.217804
-28.698366 13.917464 115.403725
-29.738981 41.281807 86.998215
-39.892685 -4.403786 133.82642
-39.197365 -0.2893274 131.46933
-36.832535 0.059133347 131.68723
-29.867262 41.457966 86.08117
-40.48359 0.31880695 130.74847
-28.41905 40.85982 87.00287
-27.790747 40.18278 89.05205
-26.399405 38.908875 89.92437
-28.449205 40.040874 90.718834
-28.600128 40.39028 89.665955
-26.611773 39.15841 88.83689
-25.074196 37.75032 92.00389
-25.958593 38.615093 92.51221
-31.50805 18.835165 113.6397
-27.275036 14.78499 111.69018
-27.529015 12.289652 113.20466
-28.50506 15.011488 114.38059
-26.197681 27.421625 104.88432
-25.523169 33.03668 101.52381
-28.483702 33.657825 101.718735
-26.121006 33.578346 101.4239
-27.102571 18.236174 110.007645
-28.775349 25.106012 108.18535
-26.899746 21.94786 108.24769
-27.056004 23.487635 107.774376
-28.087265 24.713217 108.038185
-30.272434 26.15363 107.763435
-27.469656 24.229595 107.832146
-27.506548 27.719625 105.68925
-29.445639 22.853077 110.07401
-29.67251 20.464212 111.8228
-28.110811 18.815077 111.49667
-30.391125 23.822046 109.66316
-28.811844 28.056599 106.0167
-32.42366 8.373626 122.99028
-32.157806 7.244678 124.066696
-27.8613 5.1956744 120.1337
-30.56643 5.495139 125.03132
-32.38521 13.018669 119.02233
-31.361523 16.225368 115.9403
-28.566738 9.012959 118.48686
-30.431765 12.814271 118.05613
-31.03211 14.961174 116.89522
-36.255894 7.172142 124.22454
-31.699326 6.1116633 125.06284
-33.528175 7.1962743 124.67236
-33.887547 4.7578773 127.38931
-39.297596 1.7232101 129.83604
-36.789658 0.65656406 131.1798
-29.908228 4.4299645 125.8706
-28.866396 0.6277681 129.13628
-30.976515 2.9449089 128.47656
-29.151093 0.19918 130.08752
-33.307495 3.4245684 128.70613
-33.49058 5.328809 126.688
-35.632877 3.0790873 129.18044
-31.083899 16.93714 115.238945
-30.55699 4.9528213 125.69759
-28.322035 20.678734 110.675354
-27.549543 18.205153 111.03772
-27.338451 19.940624 109.909294
-31.779657 17.38303 114.941055
-36.195724 -2.840743 133.93571
-27.148973 15.957873 110.65231
-27.441635 13.07496 112.65547
-27.399195 13.815108 112.87627
-28.124727 10.793597 116.27775
-28.067959 12.512899 115.22082
-27.982384 14.034978 114.15346
-27.71351 15.227575 112.94482
-28.096264 15.816129 113.25035
-26.949236 20.126915 109.13146
-27.337584 20.849506 109.465675
-28.314596 16.635855 113.05779
-29.818876 14.321248 116.471725
-29.638144 15.675165 115.269806
-28.892624 13.329202 116.05098
-29.130714 16.502829 114.1486
-26.321957 28.296839 104.55051
-26.487919 34.69088 100.756935
-26.627192 36.03119 99.619
-25.043116 35.93969 99.37179
-25.298033 31.65157 102.14766
-25.076178 34.468018 100.41753
-24.444145 33.878532 100.413284
-25.80749 35.673206 99.79903
-25.774536 34.965233 100.34651
-29.346033 30.530132 104.177414
-26.09018 31.633543 102.61516
-27.963606 30.578756 104.02073
-29.29258 28.832987 105.471344
-27.196096 28.44505 105.04807
-26.777584 27.618223 105.28559
-26.82685 29.19848 104.40031
-29.217098 31.386932 103.48355
-28.672081 30.151098 104.463684
-28.165922 31.377836 103.509476
-25.496834 29.093184 103.416245
-31.053783 24.114042 109.36005
-29.4058 -0.18709987 130.8904
-30.760748 1.6951288 129.96744
-32.888123 4.601389 127.280945
-31.24969 4.250837 127.007835
-27.412428 21.778465 109.06874
-28.827904 18.582579 112.381714
-28.796795 22.428421 109.98618
-28.990744 26.724386 107.11838
-26.807806 32.404915 102.43735
-31.268421 20.340765 112.39499
-30.924492 17.70206 114.53146
-26.390774 24.297344 106.45139
-26.830296 25.157885 106.635124
-28.088076 23.306282 108.89072
-27.563152 23.52374 108.32561
-29.778759 26.898724 107.1729
-27.419477 26.00022 106.71643
-27.778141 26.955574 106.35387
-29.482855 24.730211 108.751564
-28.76981 23.195168 109.44562
-30.049538 22.301226 110.723946
-30.255001 24.481064 109.12695
-29.298733 21.951183 110.618126
-29.364737 19.539965 112.2243
-28.556904 21.649355 110.29375
-27.900581 21.379818 109.86367
-29.541435 28.158535 106.09033
-39.9663 1.0261937 130.2842
-37.509346 7.4371743 122.63661
-37.48444 6.3820734 124.66351
-35.091095 7.0813255 124.82969
-36.22397 6.2851305 125.55176
-34.04499 5.9920044 126.12546
-31.500109 6.8192973 124.099304
-28.106215 7.6769 118.73305
-28.754581 6.8424377 121.1028
-35.265503 -2.9936135 134.11295
-28.470156 5.6424017 122.327705
-30.391867 9.603626 120.37317
-29.57312 5.4451904 124.17083
-31.505709 9.0995 121.779
-29.950655 6.165699 123.56079
-31.003166 6.095201 124.60178
-31.259495 4.8889084 126.24501
-28.649654 3.7043376 125.51968
-32.147682 12.367737 119.57923
-31.809622 14.798434 117.32675
-31.038424 12.676772 118.65359
-29.924671 11.293731 118.5515
-32.551487 14.412794 117.68619
-31.682272 15.516966 116.64693
-31.066824 10.250331 120.517075
-27.934927 7.591461 117.82384
-28.0106 9.200864 116.99281
-28.927948 9.700343 118.47504
-29.898298 12.13167 117.97841
-29.798979 12.961778 117.35515
-29.354511 12.178784 117.338005
-30.315575 14.981178 116.414185
-30.420225 16.293285 115.42442
-38.37382 3.209022 128.64645
-37.4473 3.2251658 128.84892
-38.390194 1.9758319 129.80255
-37.07709 2.5909562 129.48633
-37.768482 1.5121441 130.29733
-43.500935 -3.9878604 131.59448
-42.768307 -4.253041 132.67323
-40.10615 -0.3549202 131.36458
-35.94797 3.7206385 128.56317
-34.822514 4.8408713 127.44792
-38.06123 4.876039 126.59175
-37.027977 6.041836 125.45925
-35.713562 4.866367 127.46337
-34.166145 3.580586 128.65358
-32.752876 2.4484105 129.81087
-32.463604 3.0610378 128.95415
-38.851765 0.48268965 130.93059
-38.055553 0.7666396 130.84808
-36.35494 1.2323904 130.79253
-40.207657 -1.7603506 132.38533
-39.238297 -1.7099891 132.53386
-35.477257 1.1833872 131.04276
-38.300133 -1.7714736 132.76285
-37.6809 -0.41930366 131.86049
-38.8938 -3.102471 133.49202
-36.93813 -1.2096364 132.71112
-40.470657 -3.11201 133.18143
-36.972073 -2.4543593 133.57079
-36.10245 -0.844351 132.69894
-34.46172 -0.58404684 132.95483
-32.32681 0.008328848 132.61598
-34.07154 1.8355657 130.64464
-28.776524 3.1324725 126.40043
-29.576948 3.2456467 127.09824
-30.456942 3.7244864 127.158226
-29.373362 1.678642 128.79446
-30.195478 2.3876886 128.66518
-29.762903 0.5261183 130.59225
-30.24566 1.1680732 130.26422
3 0 595 246 
3 658 246 595 
3 246 709 0 
3 274 595 0 
3 595 541 658 
3 0 709 536 
3 0 708 274 
3 781 595 274 
3 571 658 541 
3 595 781 541 
3 536 708 0 
3 536 709 749 
3 708 540 274 
3 245 571 541 
3 541 781 245 
3 708 536 253 
3 534 536 749 
3 749 709 575 
3 660 274 540 
3 540 708 653 
3 571 245 560 
3 780 245 781 
3 253 536 534 
3 661 708 253 
3 749 597 534 
3 575 709 800 
3 575 664 749 
3 274 660 781 
3 779 660 540 
3 708 661 653 
3 559 560 245 
3 560 707 571 
3 245 780 559 
3 781 539 780 
3 253 534 535 
3 661 253 594 
3 534 597 651 
3 664 597 749 
3 575 800 565 
3 246 800 709 
3 575 656 664 
3 539 781 660 
3 538 779 540 
3 660 779 244 
3 653 661 252 
3 560 559 554 
3 707 560 247 
3 260 559 780 
3 558 780 539 
3 535 594 253 
3 534 651 535 
3 661 594 738 
3 748 651 597 
3 597 664 644 
3 656 575 565 
3 800 799 565 
3 246 572 800 
3 216 664 656 
3 244 539 660 
3 540 653 538 
3 516 779 538 
3 243 244 779 
3 775 653 252 
3 738 252 661 
3 554 559 258 
3 247 560 554 
3 559 260 258 
3 780 558 260 
3 558 539 244 
3 537 594 535 
3 599 535 651 
3 445 738 594 
3 644 748 597 
3 651 748 739 
3 216 644 664 
3 564 656 565 
3 565 799 564 
3 799 800 572 
3 658 572 246 
3 216 656 598 
3 775 538 653 
3 241 516 538 
3 779 516 243 
3 243 557 244 
3 775 252 532 
3 738 533 252 
3 258 552 554 
3 554 553 247 
3 244 557 558 
3 535 599 537 
3 594 537 445 
3 739 599 651 
3 471 748 644 
3 198 739 748 
3 471 644 216 
3 598 656 564 
3 799 572 265 
3 658 802 572 
3 598 472 216 
3 538 775 241 
3 774 516 241 
3 243 516 662 
3 532 778 775 
3 252 533 532 
3 738 197 533 
3 256 552 258 
3 553 554 552 
3 553 577 247 
3 557 797 558 
3 449 537 599 
3 537 652 445 
3 739 642 599 
3 198 748 471 
3 739 198 450 
3 745 471 216 
3 265 572 802 
3 802 658 571 
3 472 745 216 
3 241 775 778 
3 241 530 774 
3 774 662 516 
3 556 243 662 
3 197 738 445 
3 552 256 551 
3 259 553 552 
3 804 247 577 
3 578 577 553 
3 260 558 797 
3 255 797 557 
3 642 449 599 
3 449 652 537 
3 642 739 446 
3 471 747 198 
3 466 450 198 
3 450 446 739 
3 745 747 471 
3 265 802 801 
3 573 802 571 
3 745 472 215 
3 530 241 778 
3 240 774 530 
3 662 774 515 
3 662 517 556 
3 557 243 556 
3 197 445 441 
3 551 796 552 
3 247 804 707 
3 259 578 553 
3 550 260 797 
3 255 557 556 
3 797 255 547 
3 449 642 447 
3 652 449 196 
3 447 642 446 
3 466 198 747 
3 466 467 450 
3 446 450 192 
3 747 745 470 
3 573 801 802 
3 571 707 573 
3 215 472 473 
3 215 470 745 
3 774 240 515 
3 515 517 662 
3 555 556 517 
3 441 445 652 
3 261 796 551 
3 552 796 259 
3 573 707 804 
3 563 578 259 
3 258 260 550 
3 556 555 255 
3 547 550 797 
3 196 449 447 
3 446 641 447 
3 747 465 466 
3 450 467 192 
3 467 466 214 
3 192 641 446 
3 470 465 747 
3 801 573 593 
3 598 473 472 
3 767 515 240 
3 517 515 769 
3 242 555 517 
3 444 441 652 
3 796 261 561 
3 259 796 262 
3 550 256 258 
3 787 255 555 
3 547 549 550 
3 447 448 196 
3 214 466 465 
3 192 467 469 
3 214 468 467 
3 470 209 465 
3 804 593 573 
3 473 598 750 
3 239 767 240 
3 767 769 515 
3 769 242 517 
3 242 784 555 
3 652 196 444 
3 561 262 796 
3 259 262 563 
3 787 547 255 
3 555 784 787 
3 256 550 549 
3 548 549 547 
3 641 448 447 
3 469 746 192 
3 468 469 467 
3 463 468 214 
3 464 465 209 
3 475 209 470 
3 593 804 803 
3 564 750 598 
3 240 529 239 
3 767 239 766 
3 769 767 513 
3 769 514 242 
3 784 242 544 
3 196 448 444 
3 787 254 547 
3 546 787 784 
3 256 549 551 
3 254 548 547 
3 549 548 257 
3 448 641 199 
3 489 746 469 
3 469 468 213 
3 464 463 214 
3 468 463 461 
3 465 464 214 
3 215 475 470 
3 803 804 577 
3 564 798 750 
3 530 529 240 
3 766 513 767 
3 514 769 513 
3 770 242 514 
3 242 770 544 
3 655 784 544 
3 254 787 546 
3 784 655 546 
3 257 551 549 
3 545 548 254 
3 548 795 257 
3 641 590 199 
3 489 469 213 
3 746 489 234 
3 468 461 213 
3 463 464 741 
3 461 463 205 
3 803 577 270 
3 799 798 564 
3 529 530 527 
3 766 512 513 
3 513 768 514 
3 770 514 768 
3 544 770 783 
3 655 544 14 
3 254 546 301 
3 609 546 655 
3 551 257 261 
3 254 301 545 
3 795 548 545 
3 493 199 590 
3 213 744 489 
3 234 489 757 
3 461 462 213 
3 205 463 741 
3 210 741 464 
3 205 452 461 
3 577 578 270 
3 798 799 566 
3 778 527 530 
3 766 238 512 
3 512 768 513 
3 768 543 770 
3 783 14 544 
3 543 783 770 
3 655 14 609 
3 546 609 301 
3 562 261 257 
3 794 545 301 
3 18 795 545 
3 590 193 493 
3 462 744 213 
3 744 757 489 
3 492 234 757 
3 462 461 452 
3 578 579 270 
3 265 566 799 
3 778 251 527 
3 238 511 512 
3 238 766 528 
3 768 512 654 
3 768 654 543 
3 783 296 14 
3 783 543 782 
3 609 14 789 
3 301 609 300 
3 795 562 257 
3 261 562 561 
3 300 794 301 
3 545 794 18 
3 303 795 18 
3 493 193 491 
3 505 744 462 
3 757 744 220 
3 757 481 492 
3 204 462 452 
3 579 578 563 
3 265 569 566 
3 251 778 532 
3 654 512 511 
3 239 528 766 
3 542 543 654 
3 14 296 789 
3 782 296 783 
3 782 543 542 
3 789 300 609 
3 20 562 795 
3 22 561 562 
3 794 300 791 
3 794 302 18 
3 18 302 303 
3 20 795 303 
3 504 505 462 
3 744 505 220 
3 481 757 220 
3 492 481 229 
3 462 204 504 
3 263 579 563 
3 801 569 265 
3 251 532 531 
3 181 654 511 
3 528 239 249 
3 733 542 654 
3 293 789 296 
3 608 296 782 
3 13 782 542 
3 789 295 300 
3 562 20 22 
3 791 17 794 
3 295 791 300 
3 302 794 17 
3 304 303 302 
3 506 505 504 
3 505 506 220 
3 480 481 220 
3 229 481 479 
3 760 504 204 
3 533 531 532 
3 181 733 654 
3 249 239 529 
3 13 542 733 
3 295 789 293 
3 296 608 293 
3 782 13 608 
3 791 299 17 
3 299 791 295 
3 19 302 17 
3 19 304 302 
3 303 304 21 
3 235 506 504 
3 506 480 220 
3 481 480 479 
3 229 479 224 
3 204 647 760 
3 760 235 504 
3 195 531 533 
3 733 181 432 
3 526 249 529 
3 733 611 13 
3 293 788 295 
3 293 608 290 
3 773 608 13 
3 788 299 295 
3 17 793 19 
3 21 20 303 
3 754 506 235 
3 506 754 480 
3 225 479 480 
3 224 479 753 
3 647 204 203 
3 760 647 495 
3 235 760 503 
3 533 197 195 
3 611 733 432 
3 529 527 526 
3 13 611 773 
3 786 788 293 
3 773 290 608 
3 290 786 293 
3 793 17 299 
3 235 499 754 
3 480 754 225 
3 225 753 479 
3 476 224 753 
3 452 203 204 
3 495 503 760 
3 503 498 235 
3 736 195 197 
3 611 432 431 
3 251 526 527 
3 9 773 611 
3 788 786 16 
3 290 773 284 
3 785 786 290 
3 298 793 299 
3 499 761 754 
3 225 754 761 
3 753 225 648 
3 753 508 476 
3 455 203 452 
3 495 83 503 
3 499 235 498 
3 503 88 498 
3 441 736 197 
3 431 9 611 
3 526 251 250 
3 773 9 284 
3 786 294 16 
3 788 16 298 
3 284 785 290 
3 786 785 294 
3 298 299 788 
3 761 499 763 
3 761 648 225 
3 648 508 753 
3 508 477 476 
3 452 205 455 
3 83 88 503 
3 498 497 499 
3 497 498 88 
3 736 441 442 
3 251 531 250 
3 785 284 283 
3 10 294 785 
3 763 499 497 
3 761 763 762 
3 762 648 761 
3 508 648 509 
3 477 508 226 
3 456 455 205 
3 88 83 673 
3 88 496 497 
3 444 442 441 
3 250 531 737 
3 283 10 785 
3 284 285 283 
3 792 294 10 
3 763 497 500 
3 762 763 501 
3 509 648 762 
3 509 226 508 
3 741 456 205 
3 496 88 673 
3 500 497 496 
3 442 444 194 
3 195 737 531 
3 285 284 9 
3 294 792 297 
3 500 501 763 
3 762 501 94 
3 762 596 509 
3 226 509 507 
3 456 741 459 
3 673 347 496 
3 500 496 348 
3 448 194 444 
3 737 195 443 
3 297 792 289 
3 297 790 294 
3 348 501 500 
3 94 596 762 
3 683 94 501 
3 509 596 507 
3 507 649 226 
3 210 459 741 
3 496 347 348 
3 736 443 195 
3 7 289 792 
3 790 16 294 
3 683 501 348 
3 596 94 681 
3 94 683 358 
3 681 507 596 
3 507 764 649 
3 347 674 348 
3 188 443 736 
3 792 10 7 
3 289 7 287 
3 16 790 298 
3 502 683 348 
3 94 358 681 
3 358 683 605 
3 764 507 681 
3 764 604 649 
3 674 502 348 
3 736 442 188 
3 650 443 188 
3 10 282 7 
3 287 7 11 
3 605 683 502 
3 357 681 358 
3 89 358 605 
3 681 357 764 
3 604 764 364 
3 502 674 87 
3 442 487 188 
3 650 188 434 
3 443 650 440 
3 10 283 282 
3 7 288 11 
3 87 605 502 
3 89 357 358 
3 605 350 89 
3 364 764 357 
3 364 765 604 
3 674 345 87 
3 194 487 442 
3 434 435 650 
3 188 487 434 
3 440 737 443 
3 440 650 435 
3 288 7 282 
3 605 87 350 
3 682 357 89 
3 89 350 623 
3 357 682 364 
3 675 87 345 
3 487 194 233 
3 435 434 433 
3 487 486 434 
3 440 777 737 
3 435 735 440 
3 675 350 87 
3 89 359 682 
3 623 359 89 
3 765 364 682 
3 194 488 233 
3 187 433 434 
3 186 435 433 
3 434 486 187 
3 486 487 233 
3 735 777 440 
3 737 777 250 
3 186 735 435 
3 350 675 623 
3 682 359 363 
3 359 623 356 
3 765 682 363 
3 485 233 488 
3 233 230 486 
3 777 735 191 
3 777 525 250 
3 439 735 186 
3 351 623 675 
3 684 363 359 
3 356 684 359 
3 363 95 765 
3 488 232 485 
3 191 735 436 
3 191 525 777 
3 525 526 250 
3 735 439 436 
3 356 623 351 
3 675 349 351 
3 684 361 363 
3 684 356 360 
3 95 363 361 
3 485 232 231 
3 191 436 437 
3 191 522 525 
3 776 526 525 
3 351 677 356 
3 349 676 351 
3 684 360 361 
3 360 356 680 
3 95 361 362 
3 231 232 490 
3 522 191 437 
3 525 522 776 
3 526 776 249 
3 677 680 356 
3 676 677 351 
3 91 361 360 
3 360 680 90 
3 91 362 361 
3 490 484 231 
3 437 521 522 
3 776 522 521 
3 776 524 249 
3 680 677 355 
3 677 676 355 
3 91 360 90 
3 680 93 90 
3 91 419 362 
3 524 776 521 
3 524 528 249 
3 355 93 680 
3 91 90 711 
3 601 90 93 
3 711 419 91 
3 524 521 248 
3 528 524 523 
3 93 355 353 
3 601 711 90 
3 419 711 729 
3 248 523 524 
3 237 528 523 
3 353 354 93 
3 355 352 353 
3 711 601 638 
3 602 729 711 
3 528 237 238 
3 93 354 601 
3 352 355 676 
3 711 638 602 
3 422 729 602 
3 510 238 237 
3 666 601 354 
3 676 80 352 
3 602 638 424 
3 602 424 422 
3 510 511 238 
3 638 601 666 
3 676 349 80 
3 422 424 665 
3 511 510 430 
3 666 277 638 
3 80 349 672 
3 665 423 422 
3 424 425 665 
3 181 511 430 
3 638 277 424 
3 672 349 86 
3 423 665 730 
3 600 665 425 
3 181 430 180 
3 425 424 277 
3 730 665 731 
3 665 600 731 
3 432 181 180 
3 667 425 277 
3 731 169 730 
3 425 667 600 
3 169 712 730 
3 600 667 679 
3 728 730 712 
3 169 725 712 
3 731 600 679 
3 728 423 730 
3 725 169 719 
3 679 710 731 
3 423 728 420 
3 725 719 409 
3 169 731 710 
3 420 637 423 
3 409 719 411 
3 169 710 168 
3 637 422 423 
3 409 411 632 
3 169 168 719 
3 422 637 729 
3 632 629 409 
3 720 719 168 
3 629 632 173 
3 719 720 411 
3 629 173 171 
3 411 720 634 
3 415 171 173 
3 634 632 411 
3 722 415 173 
3 713 171 415 
3 414 632 634 
3 415 722 723 
3 173 414 722 
3 415 413 713 
3 414 173 632 
3 99 723 722 
3 413 415 723 
3 723 99 635 
3 723 101 413 
3 699 635 99 
3 101 723 635 
3 635 699 698 
3 101 635 100 
3 699 685 698 
3 698 100 635 
3 685 700 698 
3 100 698 389 
3 700 685 155 
3 700 389 698 
3 155 390 700 
3 389 700 388 
3 392 390 155 
3 388 700 390 
3 390 392 386 
3 390 151 388 
3 150 386 392 
3 390 386 151 
3 386 150 695 
3 151 386 385 
3 150 689 695 
3 695 385 386 
3 383 695 689 
3 695 714 385 
3 383 689 380 
3 714 152 385 
3 714 695 383 
3 380 625 383 
3 151 385 152 
3 384 714 383 
3 625 380 146 
3 152 703 151 
3 383 625 384 
3 625 146 381 
3 696 151 703 
3 625 627 384 
3 691 381 146 
3 391 696 703 
3 151 696 388 
3 384 627 400 
3 381 627 625 
3 691 690 381 
3 702 696 391 
3 154 388 696 
3 384 400 714 
3 400 627 368 
3 627 381 125 
3 143 690 691 
3 696 702 154 
3 388 154 389 
3 399 714 400 
3 125 368 627 
3 125 381 690 
3 382 690 143 
3 387 154 702 
3 387 389 154 
3 714 399 152 
3 400 124 399 
3 125 686 368 
3 690 693 125 
3 143 144 382 
3 389 387 100 
3 124 400 368 
3 686 125 693 
3 693 690 382 
3 124 368 371 
3 693 126 686 
3 368 686 371 
3 126 371 686 
3 126 693 692 
3 130 371 126 
3 692 693 382 
3 126 687 130 
3 692 382 688 
3 126 692 687 
3 128 687 692 
3 688 128 692 
3 128 688 374 
3 1 280 8 
3 8 5 1 
3 8 282 283 
3 8 283 285 
3 2 11 772 
3 286 11 2 
3 287 11 286 
3 6 281 288 
3 22 20 305 
3 305 25 22 
3 25 23 22 
3 28 29 24 
3 29 28 26 
3 414 276 718 
3 427 713 413 
3 308 66 33 
3 35 34 36 
3 37 310 313 
3 313 42 37 
3 606 38 315 
3 315 40 606 
3 40 316 612 
3 315 317 316 
3 317 47 616 
3 48 49 327 
3 49 615 52 
3 48 319 321 
3 314 44 592 
3 314 311 44 
3 592 43 314 
3 307 306 279 
3 279 614 54 
3 324 618 32 
3 323 50 54 
3 326 52 51 
3 323 327 57 
3 52 326 328 
3 59 58 329 
3 58 60 619 
3 56 330 55 
3 329 62 59 
3 329 330 62 
3 61 60 331 
3 334 63 331 
3 618 66 32 
3 65 66 618 
3 65 335 619 
3 66 67 33 
3 619 60 65 
3 60 67 65 
3 60 61 67 
3 331 63 61 
3 336 63 337 
3 70 337 69 
3 334 69 63 
3 338 336 71 
3 72 36 34 
3 34 71 72 
3 73 68 337 
3 72 71 68 
3 68 73 72 
3 73 337 70 
3 341 78 670 
3 342 83 759 
3 344 85 84 
3 342 346 673 
3 365 624 699 
3 105 104 103 
3 105 106 107 
3 107 104 105 
3 110 108 111 
3 103 104 112 
3 112 113 111 
3 114 112 104 
3 104 107 102 
3 114 113 112 
3 111 113 98 
3 111 109 112 
3 624 114 102 
3 115 147 378 
3 119 118 121 
3 369 128 122 
3 371 130 129 
3 127 130 687 
3 133 132 372 
3 122 374 375 
3 376 135 375 
3 137 136 35 
3 35 36 137 
3 138 132 133 
3 138 133 377 
3 140 133 131 
3 140 131 136 
3 135 139 142 
3 141 137 142 
3 141 142 139 
3 141 139 140 
3 376 139 135 
3 141 140 136 
3 137 141 136 
3 119 379 120 
3 120 379 380 
3 146 145 691 
3 147 148 145 
3 373 148 147 
3 138 148 132 
3 148 143 691 
3 148 138 143 
3 378 147 145 
3 134 374 688 
3 377 144 138 
3 144 143 138 
3 377 134 144 
3 703 152 149 
3 102 107 393 
3 156 159 107 
3 156 157 159 
3 704 392 155 
3 395 157 116 
3 395 394 157 
3 160 158 397 
3 397 396 120 
3 689 120 380 
3 397 150 160 
3 392 160 150 
3 102 114 104 
3 407 167 406 
3 341 79 78 
3 678 167 92 
3 171 172 278 
3 92 407 630 
3 630 710 92 
3 171 713 172 
3 603 170 96 
3 97 110 603 
3 170 603 410 
3 362 418 403 
3 420 728 726 
3 729 174 419 
3 726 175 420 
3 362 403 716 
3 182 429 430 
3 180 428 432 
3 183 178 5 
3 178 183 179 
3 431 432 428 
3 5 285 183 
3 734 187 184 
3 190 436 439 
3 438 186 185 
3 192 746 590 
3 454 455 456 
3 208 457 474 
3 460 451 458 
3 210 458 459 
3 212 211 460 
3 212 460 743 
3 743 209 475 
3 464 209 743 
3 475 474 212 
3 475 212 743 
3 751 228 229 
3 588 756 646 
3 217 184 187 
3 217 187 486 
3 587 485 231 
3 231 219 587 
3 586 228 478 
3 229 228 492 
3 492 491 234 
3 488 199 232 
3 234 193 746 
3 490 493 491 
3 200 494 759 
3 237 176 510 
3 236 176 237 
3 518 248 189 
3 248 519 523 
3 262 561 23 
3 262 23 24 
3 24 263 563 
3 267 801 657 
3 264 566 570 
3 570 266 264 
3 568 750 798 
3 706 576 659 
3 269 270 579 
3 27 263 29 
3 29 263 24 
3 271 69 582 
3 70 69 271 
3 271 272 70 
3 585 272 271 
3 73 273 36 
3 70 273 73 
3 142 137 273 
3 273 272 142 
3 273 137 36 
3 36 72 73 
3 272 135 142 
3 166 275 630 
3 275 631 168 
3 629 278 724 
3 724 278 417 
3 614 279 322 
3 279 53 307 
3 6 280 4 
3 4 281 6 
3 3 281 771 
3 772 3 2 
3 8 280 6 
3 6 282 8 
3 288 282 6 
3 183 285 9 
3 11 288 772 
3 12 289 287 
3 790 291 15 
3 15 298 790 
3 298 15 292 
3 304 742 21 
3 292 793 298 
3 21 305 20 
3 161 726 426 
3 98 718 717 
3 725 416 636 
3 724 409 629 
3 628 277 666 
3 666 79 628 
3 492 586 491 
3 491 586 227 
3 485 587 230 
3 218 589 230 
3 589 217 486 
3 590 641 192 
3 58 591 329 
3 329 591 55 
3 306 592 322 
3 322 592 44 
3 610 606 39 
3 32 66 308 
3 311 310 37 
3 44 311 37 
3 312 39 612 
3 318 46 613 
3 46 316 317 
3 318 316 46 
3 41 318 313 
3 612 318 41 
3 42 319 617 
3 613 42 318 
3 614 323 54 
3 615 51 52 
3 48 321 49 
3 616 321 613 
3 616 46 317 
3 613 46 616 
3 592 306 30 
3 306 322 279 
3 54 53 279 
3 617 44 37 
3 617 37 42 
3 323 48 327 
3 53 324 31 
3 54 324 53 
3 618 335 65 
3 328 55 591 
3 52 327 49 
3 328 327 52 
3 57 50 323 
3 57 328 591 
3 591 58 57 
3 59 60 58 
3 330 329 55 
3 59 331 60 
3 332 331 59 
3 62 332 59 
3 331 332 334 
3 333 62 330 
3 64 62 333 
3 332 62 64 
3 64 334 332 
3 54 335 324 
3 619 50 57 
3 619 57 58 
3 54 50 335 
3 67 66 65 
3 338 67 61 
3 61 336 338 
3 71 336 68 
3 61 63 336 
3 63 69 337 
3 337 68 336 
3 71 309 338 
3 33 338 309 
3 338 33 67 
3 668 663 716 
3 74 646 663 
3 670 76 341 
3 80 621 352 
3 79 341 77 
3 346 343 85 
3 75 80 672 
3 672 86 671 
3 85 344 345 
3 86 345 344 
3 345 86 675 
3 85 347 346 
3 340 78 353 
3 354 78 79 
3 679 678 92 
3 679 92 710 
3 418 419 174 
3 98 113 366 
3 685 393 155 
3 99 366 365 
3 631 634 720 
3 110 111 98 
3 365 113 114 
3 127 369 367 
3 128 369 687 
3 127 687 369 
3 127 370 130 
3 124 371 123 
3 148 373 132 
3 128 374 122 
3 375 374 376 
3 134 376 374 
3 139 376 134 
3 140 377 133 
3 139 377 140 
3 121 378 119 
3 145 379 378 
3 146 379 145 
3 146 380 379 
3 691 145 148 
3 134 377 139 
3 640 101 100 
3 100 387 697 
3 699 99 365 
3 701 703 149 
3 702 153 387 
3 159 393 107 
3 704 393 159 
3 159 394 704 
3 157 394 159 
3 160 392 394 
3 393 704 155 
3 160 395 158 
3 394 395 160 
3 118 396 117 
3 119 396 118 
3 120 396 119 
3 396 397 158 
3 150 397 689 
3 399 398 149 
3 152 399 149 
3 663 95 716 
3 166 407 165 
3 167 407 92 
3 678 404 167 
3 166 405 170 
3 636 726 728 
3 717 110 98 
3 168 630 275 
3 168 710 630 
3 718 98 366 
3 720 168 631 
3 633 172 721 
3 413 101 640 
3 640 427 413 
3 713 721 172 
3 722 366 99 
3 278 629 171 
3 639 416 727 
3 278 172 633 
3 633 417 278 
3 726 161 175 
3 163 418 174 
3 637 421 174 
3 175 421 420 
3 174 421 715 
3 402 421 175 
3 428 179 431 
3 177 428 180 
3 180 429 177 
3 180 430 429 
3 183 431 179 
3 9 431 183 
3 285 5 8 
3 734 433 187 
3 186 433 185 
3 189 248 521 
3 190 437 436 
3 520 437 190 
3 186 438 439 
3 448 199 488 
3 458 210 460 
3 456 202 454 
3 201 454 202 
3 740 453 758 
3 200 203 740 
3 474 206 212 
3 202 458 643 
3 202 459 458 
3 456 459 202 
3 743 210 464 
3 215 473 474 
3 208 474 473 
3 222 227 586 
3 223 476 477 
3 224 476 645 
3 751 482 228 
3 586 478 222 
3 483 752 756 
3 752 649 756 
3 227 484 490 
3 233 485 230 
3 486 230 589 
3 488 194 448 
3 493 232 199 
3 491 227 490 
3 234 491 193 
3 586 492 228 
3 590 746 193 
3 758 200 740 
3 759 82 342 
3 83 495 759 
3 200 647 203 
3 182 510 176 
3 430 510 182 
3 248 518 519 
3 236 237 523 
3 521 520 189 
3 523 519 236 
3 23 561 22 
3 563 262 24 
3 798 566 264 
3 798 264 568 
3 570 569 267 
3 568 207 208 
3 567 568 264 
3 750 208 473 
3 657 268 267 
3 267 569 801 
3 574 570 267 
3 269 706 270 
3 706 803 270 
3 27 579 263 
3 582 583 271 
3 64 582 334 
3 580 582 64 
3 122 584 581 
3 375 584 122 
3 135 585 375 
3 272 585 135 
3 273 70 272 
3 40 39 606 
3 318 42 313 
3 45 317 315 
3 316 40 315 
3 612 39 40 
3 318 612 316 
3 319 613 321 
3 42 613 319 
3 48 614 319 
3 615 49 321 
3 616 320 615 
3 44 617 322 
3 614 48 323 
3 335 618 324 
3 325 55 326 
3 55 328 326 
3 328 57 327 
3 50 619 335 
3 334 582 69 
3 615 321 616 
3 614 617 319 
3 344 622 86 
3 114 624 365 
3 685 699 624 
3 124 626 399 
3 418 620 403 
3 77 628 79 
3 408 667 277 
3 275 166 170 
3 276 631 410 
3 732 640 697 
3 728 712 636 
3 426 636 416 
3 453 454 201 
3 751 645 482 
3 645 751 224 
3 663 765 95 
3 756 649 604 
3 593 803 659 
3 659 657 593 
3 758 494 200 
3 765 663 646 
3 174 729 637 
3 276 414 634 
3 166 630 407 
3 705 639 727 
3 679 667 678 
3 617 614 322 
3 663 668 74 
3 670 78 340 
3 346 342 81 
3 673 83 342 
3 347 673 346 
3 85 674 347 
3 674 85 345 
3 675 86 349 
3 353 352 340 
3 78 354 353 
3 277 628 408 
3 408 678 667 
3 79 666 354 
3 419 418 362 
3 110 717 603 
3 721 713 427 
3 634 631 276 
3 365 366 113 
3 102 685 624 
3 291 790 297 
3 585 584 375 
3 379 119 378 
3 688 144 134 
3 144 688 382 
3 697 640 100 
3 685 102 393 
3 703 701 391 
3 694 702 391 
3 392 704 394 
3 120 689 397 
3 401 426 639 
3 716 95 362 
3 339 716 403 
3 408 628 164 
3 404 678 408 
3 281 772 288 
3 3 772 281 
3 289 607 297 
3 416 725 409 
3 170 410 275 
3 410 717 276 
3 603 717 410 
3 410 631 275 
3 717 718 276 
3 366 722 718 
3 414 718 722 
3 416 724 727 
3 409 724 416 
3 712 725 636 
3 416 639 426 
3 426 726 636 
3 297 607 291 
3 417 727 724 
3 669 19 793 
3 304 19 669 
3 793 292 669 
3 162 727 417 
3 421 637 420 
3 427 412 721 
3 427 732 412 
3 640 732 427 
3 433 734 185 
3 520 521 437 
3 643 201 202 
3 455 740 203 
3 453 740 454 
3 740 455 454 
3 210 743 460 
3 474 475 215 
3 226 752 477 
3 482 221 478 
3 224 751 229 
3 478 228 482 
3 755 477 752 
3 752 226 649 
3 604 646 756 
3 232 493 490 
3 759 495 200 
3 82 759 494 
3 647 200 495 
3 604 765 646 
3 569 570 566 
3 208 750 568 
3 657 801 593 
3 659 803 706 
3 583 582 580 
